<svg version="1.1" viewBox="0.0 0.0 600.0 371.0" fill="none" stroke="none" stroke-linecap="square" stroke-miterlimit="10" width="600" height="371" xmlns:xlink="http://www.w3.org/1999/xlink" xmlns="http://www.w3.org/2000/svg"><path fill="#ffffff" d="M0 0L600.0 0L600.0 371.0L0 371.0L0 0Z" fill-rule="nonzero"/><path stroke="#333333" stroke-width="1.0" stroke-linecap="butt" d="M52.5 332.5L581.5 332.5" fill-rule="nonzero"/><path stroke="#cccccc" stroke-width="1.0" stroke-linecap="butt" d="M52.5 294.5L581.5 294.5" fill-rule="nonzero"/><path stroke="#cccccc" stroke-width="1.0" stroke-linecap="butt" d="M52.5 256.5L581.5 256.5" fill-rule="nonzero"/><path stroke="#cccccc" stroke-width="1.0" stroke-linecap="butt" d="M52.5 218.5L581.5 218.5" fill-rule="nonzero"/><path stroke="#cccccc" stroke-width="1.0" stroke-linecap="butt" d="M52.5 180.5L581.5 180.5" fill-rule="nonzero"/><path stroke="#cccccc" stroke-width="1.0" stroke-linecap="butt" d="M52.5 142.5L581.5 142.5" fill-rule="nonzero"/><path stroke="#cccccc" stroke-width="1.0" stroke-linecap="butt" d="M52.5 104.5L581.5 104.5" fill-rule="nonzero"/><path stroke="#eeeeee" stroke-width="1.0" stroke-linecap="butt" d="M315.19867 277.72263L331.19867 277.72263" fill-rule="nonzero"/><path stroke="#eeeeee" stroke-width="1.0" stroke-linecap="butt" d="M339.1589 248.07861L355.1589 248.07861" fill-rule="nonzero"/><path stroke="#eeeeee" stroke-width="1.0" stroke-linecap="butt" d="M380.42374 218.43462L396.42374 218.43462" fill-rule="nonzero"/><path stroke="#eeeeee" stroke-width="1.0" stroke-linecap="butt" d="M442.09915 175.10876L458.09915 175.10876" fill-rule="nonzero"/><path stroke="#eeeeee" stroke-width="1.0" stroke-linecap="butt" d="M565.45 112.17228L581.45 112.17228" fill-rule="nonzero"/><clipPath id="id_0"><path d="M52.55 85.416664L581.45 85.416664L581.45 332.45L52.55 332.45L52.55 85.416664Z" clip-rule="nonzero"/></clipPath><path fill="#38761d" fill-opacity="0.3019608" clip-path="url(#id_0)" d="M52.55 332.45L223.8213 323.32877L273.96033 307.3666L298.80798 293.68478L331.19867 277.72263L340.51654 264.04077L355.1589 248.07861L376.01318 234.39677L396.42374 218.43462L415.9469 204.75276L435.91376 188.79062L458.09915 175.10876L486.9402 159.14662L517.556 145.46477L538.41034 129.50261L577.01294 115.82077L581.45 112.17228L581.45 332.45L577.01294 332.45L538.41034 332.45L517.556 332.45L486.9402 332.45L458.09915 332.45L435.91376 332.45L415.9469 332.45L396.42374 332.45L376.01318 332.45L355.1589 332.45L340.51654 332.45L331.19867 332.45L298.80798 332.45L273.96033 332.45L223.8213 332.45L52.55 332.45Z" fill-rule="nonzero"/><path stroke="#38761d" stroke-width="2.0" stroke-linecap="butt" clip-path="url(#id_0)" d="M52.55 332.45L223.8213 323.32877L273.96033 307.3666L298.80798 293.68478L331.19867 277.72263L340.51654 264.04077L355.1589 248.07861L376.01318 234.39677L396.42374 218.43462L415.9469 204.75276L435.91376 188.79062L458.09915 175.10876L486.9402 159.14662L517.556 145.46477L538.41034 129.50261L577.01294 115.82077L581.45 112.17228" fill-rule="nonzero"/><path fill="#000000" fill-opacity="0.0" clip-path="url(#id_0)" d="M55.55 332.45C55.55 334.10684 54.206856 335.45 52.55 335.45C50.893147 335.45 49.55 334.10684 49.55 332.45C49.55 330.79315 50.893147 329.45 52.55 329.45C54.206856 329.45 55.55 330.79315 55.55 332.45Z" fill-rule="nonzero"/><path fill="#000000" fill-opacity="0.0" clip-path="url(#id_0)" d="M226.8213 323.32877C226.8213 324.98563 225.47816 326.32877 223.8213 326.32877C222.16446 326.32877 220.8213 324.98563 220.8213 323.32877C220.8213 321.6719 222.16446 320.32877 223.8213 320.32877C225.47816 320.32877 226.8213 321.6719 226.8213 323.32877Z" fill-rule="nonzero"/><path fill="#000000" fill-opacity="0.0" clip-path="url(#id_0)" d="M276.96033 307.3666C276.96033 309.02347 275.6172 310.3666 273.96033 310.3666C272.30347 310.3666 270.96033 309.02347 270.96033 307.3666C270.96033 305.70975 272.30347 304.3666 273.96033 304.3666C275.6172 304.3666 276.96033 305.70975 276.96033 307.3666Z" fill-rule="nonzero"/><path fill="#000000" fill-opacity="0.0" clip-path="url(#id_0)" d="M301.80798 293.68478C301.80798 295.3416 300.4648 296.68478 298.80798 296.68478C297.15112 296.68478 295.80798 295.3416 295.80798 293.68478C295.80798 292.02792 297.15112 290.68478 298.80798 290.68478C300.4648 290.68478 301.80798 292.02792 301.80798 293.68478Z" fill-rule="nonzero"/><path fill="#000000" fill-opacity="0.0" clip-path="url(#id_0)" d="M334.19867 277.72263C334.19867 279.37946 332.8555 280.72263 331.19867 280.72263C329.5418 280.72263 328.19867 279.37946 328.19867 277.72263C328.19867 276.06577 329.5418 274.72263 331.19867 274.72263C332.8555 274.72263 334.19867 276.06577 334.19867 277.72263Z" fill-rule="nonzero"/><path fill="#000000" fill-opacity="0.0" clip-path="url(#id_0)" d="M343.51654 264.04077C343.51654 265.69763 342.17337 267.04077 340.51654 267.04077C338.85968 267.04077 337.51654 265.69763 337.51654 264.04077C337.51654 262.3839 338.85968 261.04077 340.51654 261.04077C342.17337 261.04077 343.51654 262.3839 343.51654 264.04077Z" fill-rule="nonzero"/><path fill="#000000" fill-opacity="0.0" clip-path="url(#id_0)" d="M358.1589 248.07861C358.1589 249.73547 356.81573 251.07861 355.1589 251.07861C353.50204 251.07861 352.1589 249.73547 352.1589 248.07861C352.1589 246.42177 353.50204 245.07861 355.1589 245.07861C356.81573 245.07861 358.1589 246.42177 358.1589 248.07861Z" fill-rule="nonzero"/><path fill="#000000" fill-opacity="0.0" clip-path="url(#id_0)" d="M379.01318 234.39677C379.01318 236.05362 377.67 237.39677 376.01318 237.39677C374.35632 237.39677 373.01318 236.05362 373.01318 234.39677C373.01318 232.73991 374.35632 231.39677 376.01318 231.39677C377.67 231.39677 379.01318 232.73991 379.01318 234.39677Z" fill-rule="nonzero"/><path fill="#000000" fill-opacity="0.0" clip-path="url(#id_0)" d="M399.42374 218.43462C399.42374 220.09148 398.0806 221.43462 396.42374 221.43462C394.76688 221.43462 393.42374 220.09148 393.42374 218.43462C393.42374 216.77776 394.76688 215.43462 396.42374 215.43462C398.0806 215.43462 399.42374 216.77776 399.42374 218.43462Z" fill-rule="nonzero"/><path fill="#000000" fill-opacity="0.0" clip-path="url(#id_0)" d="M418.9469 204.75276C418.9469 206.40962 417.60376 207.75276 415.9469 207.75276C414.29004 207.75276 412.9469 206.40962 412.9469 204.75276C412.9469 203.09592 414.29004 201.75276 415.9469 201.75276C417.60376 201.75276 418.9469 203.09592 418.9469 204.75276Z" fill-rule="nonzero"/><path fill="#000000" fill-opacity="0.0" clip-path="url(#id_0)" d="M438.91376 188.79062C438.91376 190.44746 437.57062 191.79062 435.91376 191.79062C434.2569 191.79062 432.91376 190.44746 432.91376 188.79062C432.91376 187.13376 434.2569 185.79062 435.91376 185.79062C437.57062 185.79062 438.91376 187.13376 438.91376 188.79062Z" fill-rule="nonzero"/><path fill="#000000" fill-opacity="0.0" clip-path="url(#id_0)" d="M461.09915 175.10876C461.09915 176.76562 459.756 178.10876 458.09915 178.10876C456.44232 178.10876 455.09915 176.76562 455.09915 175.10876C455.09915 173.45192 456.44232 172.10876 458.09915 172.10876C459.756 172.10876 461.09915 173.45192 461.09915 175.10876Z" fill-rule="nonzero"/><path fill="#000000" fill-opacity="0.0" clip-path="url(#id_0)" d="M489.9402 159.14662C489.9402 160.80347 488.59705 162.14662 486.9402 162.14662C485.28333 162.14662 483.9402 160.80347 483.9402 159.14662C483.9402 157.48976 485.28333 156.14662 486.9402 156.14662C488.59705 156.14662 489.9402 157.48976 489.9402 159.14662Z" fill-rule="nonzero"/><path fill="#000000" fill-opacity="0.0" clip-path="url(#id_0)" d="M520.556 145.46477C520.556 147.12163 519.2129 148.46477 517.556 148.46477C515.8992 148.46477 514.556 147.12163 514.556 145.46477C514.556 143.80792 515.8992 142.46477 517.556 142.46477C519.2129 142.46477 520.556 143.80792 520.556 145.46477Z" fill-rule="nonzero"/><path fill="#000000" fill-opacity="0.0" clip-path="url(#id_0)" d="M541.41034 129.50261C541.41034 131.15947 540.0672 132.50261 538.41034 132.50261C536.7535 132.50261 535.41034 131.15947 535.41034 129.50261C535.41034 127.845764 536.7535 126.50262 538.41034 126.50262C540.0672 126.50262 541.41034 127.845764 541.41034 129.50261Z" fill-rule="nonzero"/><path fill="#000000" fill-opacity="0.0" clip-path="url(#id_0)" d="M580.01294 115.82077C580.01294 117.47762 578.6698 118.82077 577.01294 118.82077C575.3561 118.82077 574.01294 117.47762 574.01294 115.82077C574.01294 114.16392 575.3561 112.82077 577.01294 112.82077C578.6698 112.82077 580.01294 114.16392 580.01294 115.82077Z" fill-rule="nonzero"/><path fill="#000000" fill-opacity="0.0" clip-path="url(#id_0)" d="M584.45 112.17228C584.45 113.82913 583.1069 115.17228 581.45 115.17228C579.79315 115.17228 578.45 113.82913 578.45 112.17228C578.45 110.51542 579.79315 109.17228 581.45 109.17228C583.1069 109.17228 584.45 110.51542 584.45 112.17228Z" fill-rule="nonzero"/><path stroke="#ffffff" stroke-width="3.0" stroke-linejoin="round" stroke-linecap="round" d="M293.10492 280.75388L294.68304 275.87888L295.79242 275.87888L293.51117 282.22263L292.68304 282.22263L290.38617 275.87888L291.49554 275.87888L293.10492 280.75388ZM300.4643 282.22263L299.38617 282.22263L299.38617 275.00388L297.19867 275.80075L297.19867 274.81638L300.30804 273.6445L300.4643 273.6445L300.4643 282.22263ZM304.04242 281.66013Q304.04242 281.37888 304.19867 281.19138Q304.37054 281.00388 304.69867 281.00388Q305.04242 281.00388 305.2143 281.19138Q305.38617 281.37888 305.38617 281.66013Q305.38617 281.92575 305.2143 282.11325Q305.04242 282.28513 304.69867 282.28513Q304.37054 282.28513 304.19867 282.11325Q304.04242 281.92575 304.04242 281.66013ZM312.26117 278.582Q312.26117 280.48825 311.60492 281.42575Q310.9643 282.34763 309.57367 282.34763Q308.2143 282.34763 307.55804 281.44138Q306.9018 280.53513 306.87054 278.72263L306.87054 277.28513Q306.87054 275.3945 307.51117 274.48825Q308.16742 273.56638 309.55804 273.56638Q310.93304 273.56638 311.5893 274.457Q312.24554 275.332 312.26117 277.17575L312.26117 278.582ZM311.16742 277.09763Q311.16742 275.72263 310.7768 275.09763Q310.4018 274.457 309.55804 274.457Q308.72992 274.457 308.3393 275.09763Q307.9643 275.72263 307.9643 277.0195L307.9643 278.75388Q307.9643 280.12888 308.35492 280.80075Q308.76117 281.457 309.57367 281.457Q310.37054 281.457 310.76117 280.832Q311.1518 280.207 311.16742 278.87888L311.16742 277.09763Z" fill-rule="nonzero"/><path fill="#38761d" d="M293.10492 280.75388L294.68304 275.87888L295.79242 275.87888L293.51117 282.22263L292.68304 282.22263L290.38617 275.87888L291.49554 275.87888L293.10492 280.75388ZM300.4643 282.22263L299.38617 282.22263L299.38617 275.00388L297.19867 275.80075L297.19867 274.81638L300.30804 273.6445L300.4643 273.6445L300.4643 282.22263ZM304.04242 281.66013Q304.04242 281.37888 304.19867 281.19138Q304.37054 281.00388 304.69867 281.00388Q305.04242 281.00388 305.2143 281.19138Q305.38617 281.37888 305.38617 281.66013Q305.38617 281.92575 305.2143 282.11325Q305.04242 282.28513 304.69867 282.28513Q304.37054 282.28513 304.19867 282.11325Q304.04242 281.92575 304.04242 281.66013ZM312.26117 278.582Q312.26117 280.48825 311.60492 281.42575Q310.9643 282.34763 309.57367 282.34763Q308.2143 282.34763 307.55804 281.44138Q306.9018 280.53513 306.87054 278.72263L306.87054 277.28513Q306.87054 275.3945 307.51117 274.48825Q308.16742 273.56638 309.55804 273.56638Q310.93304 273.56638 311.5893 274.457Q312.24554 275.332 312.26117 277.17575L312.26117 278.582ZM311.16742 277.09763Q311.16742 275.72263 310.7768 275.09763Q310.4018 274.457 309.55804 274.457Q308.72992 274.457 308.3393 275.09763Q307.9643 275.72263 307.9643 277.0195L307.9643 278.75388Q307.9643 280.12888 308.35492 280.80075Q308.76117 281.457 309.57367 281.457Q310.37054 281.457 310.76117 280.832Q311.1518 280.207 311.16742 278.87888L311.16742 277.09763Z" fill-rule="nonzero"/><path stroke="#ffffff" stroke-width="3.0" stroke-linejoin="round" stroke-linecap="round" d="M317.06516 251.10986L318.64328 246.23486L319.75266 246.23486L317.4714 252.57861L316.64328 252.57861L314.3464 246.23486L315.45578 246.23486L317.06516 251.10986ZM324.42453 252.57861L323.3464 252.57861L323.3464 245.35986L321.1589 246.15674L321.1589 245.17236L324.26828 244.00049L324.42453 244.00049L324.42453 252.57861ZM328.00266 252.01611Q328.00266 251.73486 328.1589 251.54736Q328.33078 251.35986 328.6589 251.35986Q329.00266 251.35986 329.17453 251.54736Q329.3464 251.73486 329.3464 252.01611Q329.3464 252.28174 329.17453 252.46924Q329.00266 252.64111 328.6589 252.64111Q328.33078 252.64111 328.1589 252.46924Q328.00266 252.28174 328.00266 252.01611ZM334.42453 252.57861L333.3464 252.57861L333.3464 245.35986L331.1589 246.15674L331.1589 245.17236L334.26828 244.00049L334.42453 244.00049L334.42453 252.57861Z" fill-rule="nonzero"/><path fill="#38761d" d="M317.06516 251.10986L318.64328 246.23486L319.75266 246.23486L317.4714 252.57861L316.64328 252.57861L314.3464 246.23486L315.45578 246.23486L317.06516 251.10986ZM324.42453 252.57861L323.3464 252.57861L323.3464 245.35986L321.1589 246.15674L321.1589 245.17236L324.26828 244.00049L324.42453 244.00049L324.42453 252.57861ZM328.00266 252.01611Q328.00266 251.73486 328.1589 251.54736Q328.33078 251.35986 328.6589 251.35986Q329.00266 251.35986 329.17453 251.54736Q329.3464 251.73486 329.3464 252.01611Q329.3464 252.28174 329.17453 252.46924Q329.00266 252.64111 328.6589 252.64111Q328.33078 252.64111 328.1589 252.46924Q328.00266 252.28174 328.00266 252.01611ZM334.42453 252.57861L333.3464 252.57861L333.3464 245.35986L331.1589 246.15674L331.1589 245.17236L334.26828 244.00049L334.42453 244.00049L334.42453 252.57861Z" fill-rule="nonzero"/><path stroke="#ffffff" stroke-width="3.0" stroke-linejoin="round" stroke-linecap="round" d="M358.33 221.46587L359.9081 216.59087L361.0175 216.59087L358.73624 222.93462L357.9081 222.93462L355.61124 216.59087L356.7206 216.59087L358.33 221.46587ZM365.68936 222.93462L364.61124 222.93462L364.61124 215.71587L362.42374 216.51274L362.42374 215.52837L365.5331 214.35649L365.68936 214.35649L365.68936 222.93462ZM369.2675 222.37212Q369.2675 222.09087 369.42374 221.90337Q369.5956 221.71587 369.92374 221.71587Q370.2675 221.71587 370.43936 221.90337Q370.61124 222.09087 370.61124 222.37212Q370.61124 222.63774 370.43936 222.82524Q370.2675 222.99712 369.92374 222.99712Q369.5956 222.99712 369.42374 222.82524Q369.2675 222.63774 369.2675 222.37212ZM377.7206 222.93462L372.12686 222.93462L372.12686 222.15337L375.08 218.87212Q375.73624 218.12212 375.98624 217.66899Q376.23624 217.20024 376.23624 216.70024Q376.23624 216.02837 375.83 215.60649Q375.43936 215.16899 374.75186 215.16899Q373.955 215.16899 373.50186 215.63774Q373.04874 216.09087 373.04874 216.91899L371.9706 216.91899Q371.9706 215.73149 372.7206 215.01274Q373.48624 214.27837 374.75186 214.27837Q375.955 214.27837 376.6425 214.90337Q377.33 215.52837 377.33 216.57524Q377.33 217.82524 375.7206 219.57524L373.43936 222.04399L377.7206 222.04399L377.7206 222.93462Z" fill-rule="nonzero"/><path fill="#38761d" d="M358.33 221.46587L359.9081 216.59087L361.0175 216.59087L358.73624 222.93462L357.9081 222.93462L355.61124 216.59087L356.7206 216.59087L358.33 221.46587ZM365.68936 222.93462L364.61124 222.93462L364.61124 215.71587L362.42374 216.51274L362.42374 215.52837L365.5331 214.35649L365.68936 214.35649L365.68936 222.93462ZM369.2675 222.37212Q369.2675 222.09087 369.42374 221.90337Q369.5956 221.71587 369.92374 221.71587Q370.2675 221.71587 370.43936 221.90337Q370.61124 222.09087 370.61124 222.37212Q370.61124 222.63774 370.43936 222.82524Q370.2675 222.99712 369.92374 222.99712Q369.5956 222.99712 369.42374 222.82524Q369.2675 222.63774 369.2675 222.37212ZM377.7206 222.93462L372.12686 222.93462L372.12686 222.15337L375.08 218.87212Q375.73624 218.12212 375.98624 217.66899Q376.23624 217.20024 376.23624 216.70024Q376.23624 216.02837 375.83 215.60649Q375.43936 215.16899 374.75186 215.16899Q373.955 215.16899 373.50186 215.63774Q373.04874 216.09087 373.04874 216.91899L371.9706 216.91899Q371.9706 215.73149 372.7206 215.01274Q373.48624 214.27837 374.75186 214.27837Q375.955 214.27837 376.6425 214.90337Q377.33 215.52837 377.33 216.57524Q377.33 217.82524 375.7206 219.57524L373.43936 222.04399L377.7206 222.04399L377.7206 222.93462Z" fill-rule="nonzero"/><path stroke="#ffffff" stroke-width="3.0" stroke-linejoin="round" stroke-linecap="round" d="M420.0054 178.14001L421.58353 173.26501L422.6929 173.26501L420.41165 179.60876L419.58353 179.60876L417.28665 173.26501L418.39603 173.26501L420.0054 178.14001ZM427.36478 179.60876L426.28665 179.60876L426.28665 172.39001L424.09915 173.18689L424.09915 172.20251L427.20853 171.03064L427.36478 171.03064L427.36478 179.60876ZM430.9429 179.04626Q430.9429 178.76501 431.09915 178.57751Q431.27103 178.39001 431.59915 178.39001Q431.9429 178.39001 432.11478 178.57751Q432.28665 178.76501 432.28665 179.04626Q432.28665 179.31189 432.11478 179.49939Q431.9429 179.67126 431.59915 179.67126Q431.27103 179.67126 431.09915 179.49939Q430.9429 179.31189 430.9429 179.04626ZM435.3804 174.81189L436.1929 174.81189Q436.97415 174.79626 437.41165 174.40564Q437.84915 174.01501 437.84915 173.34314Q437.84915 171.84314 436.34915 171.84314Q435.64603 171.84314 435.22415 172.24939Q434.8179 172.65564 434.8179 173.31189L433.72415 173.31189Q433.72415 172.29626 434.45853 171.62439Q435.20853 170.95251 436.34915 170.95251Q437.55228 170.95251 438.23978 171.59314Q438.92728 172.23376 438.92728 173.37439Q438.92728 173.93689 438.5679 174.45251Q438.20853 174.96814 437.58353 175.23376Q438.28665 175.45251 438.66165 175.96814Q439.05228 176.48376 439.05228 177.23376Q439.05228 178.37439 438.30228 179.06189Q437.55228 179.73376 436.34915 179.73376Q435.16165 179.73376 434.39603 179.07751Q433.64603 178.42126 433.64603 177.35876L434.73978 177.35876Q434.73978 178.03064 435.17728 178.43689Q435.61478 178.84314 436.36478 178.84314Q437.14603 178.84314 437.55228 178.43689Q437.97415 178.01501 437.97415 177.24939Q437.97415 176.51501 437.52103 176.12439Q437.0679 175.71814 436.1929 175.70251L435.3804 175.70251L435.3804 174.81189Z" fill-rule="nonzero"/><path fill="#38761d" d="M420.0054 178.14001L421.58353 173.26501L422.6929 173.26501L420.41165 179.60876L419.58353 179.60876L417.28665 173.26501L418.39603 173.26501L420.0054 178.14001ZM427.36478 179.60876L426.28665 179.60876L426.28665 172.39001L424.09915 173.18689L424.09915 172.20251L427.20853 171.03064L427.36478 171.03064L427.36478 179.60876ZM430.9429 179.04626Q430.9429 178.76501 431.09915 178.57751Q431.27103 178.39001 431.59915 178.39001Q431.9429 178.39001 432.11478 178.57751Q432.28665 178.76501 432.28665 179.04626Q432.28665 179.31189 432.11478 179.49939Q431.9429 179.67126 431.59915 179.67126Q431.27103 179.67126 431.09915 179.49939Q430.9429 179.31189 430.9429 179.04626ZM435.3804 174.81189L436.1929 174.81189Q436.97415 174.79626 437.41165 174.40564Q437.84915 174.01501 437.84915 173.34314Q437.84915 171.84314 436.34915 171.84314Q435.64603 171.84314 435.22415 172.24939Q434.8179 172.65564 434.8179 173.31189L433.72415 173.31189Q433.72415 172.29626 434.45853 171.62439Q435.20853 170.95251 436.34915 170.95251Q437.55228 170.95251 438.23978 171.59314Q438.92728 172.23376 438.92728 173.37439Q438.92728 173.93689 438.5679 174.45251Q438.20853 174.96814 437.58353 175.23376Q438.28665 175.45251 438.66165 175.96814Q439.05228 176.48376 439.05228 177.23376Q439.05228 178.37439 438.30228 179.06189Q437.55228 179.73376 436.34915 179.73376Q435.16165 179.73376 434.39603 179.07751Q433.64603 178.42126 433.64603 177.35876L434.73978 177.35876Q434.73978 178.03064 435.17728 178.43689Q435.61478 178.84314 436.36478 178.84314Q437.14603 178.84314 437.55228 178.43689Q437.97415 178.01501 437.97415 177.24939Q437.97415 176.51501 437.52103 176.12439Q437.0679 175.71814 436.1929 175.70251L435.3804 175.70251L435.3804 174.81189Z" fill-rule="nonzero"/><path stroke="#ffffff" stroke-width="3.0" stroke-linejoin="round" stroke-linecap="round" d="M543.35626 115.20353L544.9344 110.32853L546.04376 110.32853L543.7625 116.67228L542.9344 116.67228L540.6375 110.32853L541.7469 110.32853L543.35626 115.20353ZM550.71564 116.67228L549.6375 116.67228L549.6375 109.45353L547.45 110.250404L547.45 109.26603L550.5594 108.094154L550.71564 108.094154L550.71564 116.67228ZM554.29376 116.10978Q554.29376 115.82853 554.45 115.64103Q554.6219 115.45353 554.95 115.45353Q555.29376 115.45353 555.46564 115.64103Q555.6375 115.82853 555.6375 116.10978Q555.6375 116.375404 555.46564 116.562904Q555.29376 116.73478 554.95 116.73478Q554.6219 116.73478 554.45 116.562904Q554.29376 116.375404 554.29376 116.10978ZM561.73126 113.812904L562.91876 113.812904L562.91876 114.687904L561.73126 114.687904L561.73126 116.67228L560.65314 116.67228L560.65314 114.687904L556.7625 114.687904L556.7625 114.04728L560.575 108.14103L561.73126 108.14103L561.73126 113.812904ZM557.9969 113.812904L560.65314 113.812904L560.65314 109.625404L560.5125 109.85978L557.9969 113.812904Z" fill-rule="nonzero"/><path fill="#38761d" d="M543.35626 115.20353L544.9344 110.32853L546.04376 110.32853L543.7625 116.67228L542.9344 116.67228L540.6375 110.32853L541.7469 110.32853L543.35626 115.20353ZM550.71564 116.67228L549.6375 116.67228L549.6375 109.45353L547.45 110.250404L547.45 109.26603L550.5594 108.094154L550.71564 108.094154L550.71564 116.67228ZM554.29376 116.10978Q554.29376 115.82853 554.45 115.64103Q554.6219 115.45353 554.95 115.45353Q555.29376 115.45353 555.46564 115.64103Q555.6375 115.82853 555.6375 116.10978Q555.6375 116.375404 555.46564 116.562904Q555.29376 116.73478 554.95 116.73478Q554.6219 116.73478 554.45 116.562904Q554.29376 116.375404 554.29376 116.10978ZM561.73126 113.812904L562.91876 113.812904L562.91876 114.687904L561.73126 114.687904L561.73126 116.67228L560.65314 116.67228L560.65314 114.687904L556.7625 114.687904L556.7625 114.04728L560.575 108.14103L561.73126 108.14103L561.73126 113.812904ZM557.9969 113.812904L560.65314 113.812904L560.65314 109.625404L560.5125 109.85978L557.9969 113.812904Z" fill-rule="nonzero"/><path fill="#000000" d="M40.05 332.21564Q40.05 330.6844 40.3625 329.7625Q40.675 328.825 41.284374 328.325Q41.909374 327.825 42.846874 327.825Q43.534374 327.825 44.05 328.10626Q44.58125 328.3875 44.925 328.91876Q45.26875 329.4344 45.45625 330.1844Q45.64375 330.9344 45.64375 332.21564Q45.64375 333.73126 45.33125 334.65314Q45.034374 335.575 44.409374 336.09064Q43.8 336.59064 42.846874 336.59064Q41.6125 336.59064 40.89375 335.7Q40.05 334.6375 40.05 332.21564ZM41.128124 332.21564Q41.128124 334.325 41.628124 335.02814Q42.128124 335.73126 42.846874 335.73126Q43.58125 335.73126 44.065624 335.02814Q44.565624 334.325 44.565624 332.21564Q44.565624 330.09064 44.065624 329.40314Q43.58125 328.7 42.83125 328.7Q42.1125 328.7 41.675 329.3094Q41.128124 330.09064 41.128124 332.21564Z" fill-rule="nonzero"/><path fill="#000000" d="M26.05 296.1949L27.159374 296.10114Q27.284374 296.91364 27.721874 297.3199Q28.175 297.72614 28.815624 297.72614Q29.565624 297.72614 30.096874 297.148Q30.628124 296.5699 30.628124 295.6324Q30.628124 294.72614 30.1125 294.2105Q29.6125 293.67926 28.784374 293.67926Q28.284374 293.67926 27.8625 293.91364Q27.45625 294.148 27.221874 294.5074L26.2375 294.3824L27.065624 289.97614L31.346874 289.97614L31.346874 290.97614L27.909374 290.97614L27.45625 293.28864Q28.221874 292.74176 29.065624 292.74176Q30.190624 292.74176 30.95625 293.523Q31.7375 294.30426 31.7375 295.53864Q31.7375 296.6949 31.065624 297.55426Q30.2375 298.5855 28.815624 298.5855Q27.64375 298.5855 26.89375 297.92926Q26.159374 297.273 26.05 296.1949ZM33.05 294.2105Q33.05 292.67926 33.3625 291.7574Q33.675 290.8199 34.284374 290.3199Q34.909374 289.8199 35.846874 289.8199Q36.534374 289.8199 37.05 290.10114Q37.58125 290.3824 37.925 290.91364Q38.26875 291.42926 38.45625 292.17926Q38.64375 292.92926 38.64375 294.2105Q38.64375 295.72614 38.33125 296.648Q38.034374 297.5699 37.409374 298.0855Q36.8 298.5855 35.846874 298.5855Q34.6125 298.5855 33.89375 297.6949Q33.05 296.6324 33.05 294.2105ZM34.128124 294.2105Q34.128124 296.3199 34.628124 297.023Q35.128124 297.72614 35.846874 297.72614Q36.58125 297.72614 37.065624 297.023Q37.565624 296.3199 37.565624 294.2105Q37.565624 292.0855 37.065624 291.398Q36.58125 290.6949 35.83125 290.6949Q35.1125 290.6949 34.675 291.30426Q34.128124 292.0855 34.128124 294.2105ZM40.05 294.2105Q40.05 292.67926 40.3625 291.7574Q40.675 290.8199 41.284374 290.3199Q41.909374 289.8199 42.846874 289.8199Q43.534374 289.8199 44.05 290.10114Q44.58125 290.3824 44.925 290.91364Q45.26875 291.42926 45.45625 292.17926Q45.64375 292.92926 45.64375 294.2105Q45.64375 295.72614 45.33125 296.648Q45.034374 297.5699 44.409374 298.0855Q43.8 298.5855 42.846874 298.5855Q41.6125 298.5855 40.89375 297.6949Q40.05 296.6324 40.05 294.2105ZM41.128124 294.2105Q41.128124 296.3199 41.628124 297.023Q42.128124 297.72614 42.846874 297.72614Q43.58125 297.72614 44.065624 297.023Q44.565624 296.3199 44.565624 294.2105Q44.565624 292.0855 44.065624 291.398Q43.58125 290.6949 42.83125 290.6949Q42.1125 290.6949 41.675 291.30426Q41.128124 292.0855 41.128124 294.2105Z" fill-rule="nonzero"/><path fill="#000000" d="M23.01875 260.43976L21.971874 260.43976L21.971874 253.72101Q21.58125 254.08038 20.95625 254.45538Q20.346874 254.81476 19.8625 254.98663L19.8625 253.97101Q20.7375 253.54913 21.39375 252.97101Q22.065624 252.37726 22.346874 251.81476L23.01875 251.81476L23.01875 260.43976ZM26.05 256.20538Q26.05 254.67413 26.3625 253.75226Q26.675 252.81476 27.284374 252.31476Q27.909374 251.81476 28.846874 251.81476Q29.534374 251.81476 30.05 252.09601Q30.58125 252.37726 30.925 252.90851Q31.26875 253.42413 31.45625 254.17413Q31.64375 254.92413 31.64375 256.20538Q31.64375 257.721 31.33125 258.64288Q31.034374 259.56476 30.409374 260.08038Q29.8 260.58038 28.846874 260.58038Q27.6125 260.58038 26.89375 259.68976Q26.05 258.62726 26.05 256.20538ZM27.128124 256.20538Q27.128124 258.31476 27.628124 259.01788Q28.128124 259.721 28.846874 259.721Q29.58125 259.721 30.065624 259.01788Q30.565624 258.31476 30.565624 256.20538Q30.565624 254.08038 30.065624 253.39288Q29.58125 252.68976 28.83125 252.68976Q28.1125 252.68976 27.675 253.29913Q27.128124 254.08038 27.128124 256.20538ZM33.05 256.20538Q33.05 254.67413 33.3625 253.75226Q33.675 252.81476 34.284374 252.31476Q34.909374 251.81476 35.846874 251.81476Q36.534374 251.81476 37.05 252.09601Q37.58125 252.37726 37.925 252.90851Q38.26875 253.42413 38.45625 254.17413Q38.64375 254.92413 38.64375 256.20538Q38.64375 257.721 38.33125 258.64288Q38.034374 259.56476 37.409374 260.08038Q36.8 260.58038 35.846874 260.58038Q34.6125 260.58038 33.89375 259.68976Q33.05 258.62726 33.05 256.20538ZM34.128124 256.20538Q34.128124 258.31476 34.628124 259.01788Q35.128124 259.721 35.846874 259.721Q36.58125 259.721 37.065624 259.01788Q37.565624 258.31476 37.565624 256.20538Q37.565624 254.08038 37.065624 253.39288Q36.58125 252.68976 35.83125 252.68976Q35.1125 252.68976 34.675 253.29913Q34.128124 254.08038 34.128124 256.20538ZM40.05 256.20538Q40.05 254.67413 40.3625 253.75226Q40.675 252.81476 41.284374 252.31476Q41.909374 251.81476 42.846874 251.81476Q43.534374 251.81476 44.05 252.09601Q44.58125 252.37726 44.925 252.90851Q45.26875 253.42413 45.45625 254.17413Q45.64375 254.92413 45.64375 256.20538Q45.64375 257.721 45.33125 258.64288Q45.034374 259.56476 44.409374 260.08038Q43.8 260.58038 42.846874 260.58038Q41.6125 260.58038 40.89375 259.68976Q40.05 258.62726 40.05 256.20538ZM41.128124 256.20538Q41.128124 258.31476 41.628124 259.01788Q42.128124 259.721 42.846874 259.721Q43.58125 259.721 44.065624 259.01788Q44.565624 258.31476 44.565624 256.20538Q44.565624 254.08038 44.065624 253.39288Q43.58125 252.68976 42.83125 252.68976Q42.1125 252.68976 41.675 253.29913Q41.128124 254.08038 41.128124 256.20538Z" fill-rule="nonzero"/><path fill="#000000" d="M23.01875 222.43462L21.971874 222.43462L21.971874 215.71587Q21.58125 216.07524 20.95625 216.45024Q20.346874 216.80962 19.8625 216.98149L19.8625 215.96587Q20.7375 215.54399 21.39375 214.96587Q22.065624 214.37212 22.346874 213.80962L23.01875 213.80962L23.01875 222.43462ZM26.05 220.18462L27.159374 220.09087Q27.284374 220.90337 27.721874 221.30962Q28.175 221.71587 28.815624 221.71587Q29.565624 221.71587 30.096874 221.13774Q30.628124 220.55962 30.628124 219.62212Q30.628124 218.71587 30.1125 218.20024Q29.6125 217.66899 28.784374 217.66899Q28.284374 217.66899 27.8625 217.90337Q27.45625 218.13774 27.221874 218.49712L26.2375 218.37212L27.065624 213.96587L31.346874 213.96587L31.346874 214.96587L27.909374 214.96587L27.45625 217.27837Q28.221874 216.73149 29.065624 216.73149Q30.190624 216.73149 30.95625 217.51274Q31.7375 218.29399 31.7375 219.52837Q31.7375 220.68462 31.065624 221.54399Q30.2375 222.57524 28.815624 222.57524Q27.64375 222.57524 26.89375 221.91899Q26.159374 221.26274 26.05 220.18462ZM33.05 218.20024Q33.05 216.66899 33.3625 215.74712Q33.675 214.80962 34.284374 214.30962Q34.909374 213.80962 35.846874 213.80962Q36.534374 213.80962 37.05 214.09087Q37.58125 214.37212 37.925 214.90337Q38.26875 215.41899 38.45625 216.16899Q38.64375 216.91899 38.64375 218.20024Q38.64375 219.71587 38.33125 220.63774Q38.034374 221.55962 37.409374 222.07524Q36.8 222.57524 35.846874 222.57524Q34.6125 222.57524 33.89375 221.68462Q33.05 220.62212 33.05 218.20024ZM34.128124 218.20024Q34.128124 220.30962 34.628124 221.01274Q35.128124 221.71587 35.846874 221.71587Q36.58125 221.71587 37.065624 221.01274Q37.565624 220.30962 37.565624 218.20024Q37.565624 216.07524 37.065624 215.38774Q36.58125 214.68462 35.83125 214.68462Q35.1125 214.68462 34.675 215.29399Q34.128124 216.07524 34.128124 218.20024ZM40.05 218.20024Q40.05 216.66899 40.3625 215.74712Q40.675 214.80962 41.284374 214.30962Q41.909374 213.80962 42.846874 213.80962Q43.534374 213.80962 44.05 214.09087Q44.58125 214.37212 44.925 214.90337Q45.26875 215.41899 45.45625 216.16899Q45.64375 216.91899 45.64375 218.20024Q45.64375 219.71587 45.33125 220.63774Q45.034374 221.55962 44.409374 222.07524Q43.8 222.57524 42.846874 222.57524Q41.6125 222.57524 40.89375 221.68462Q40.05 220.62212 40.05 218.20024ZM41.128124 218.20024Q41.128124 220.30962 41.628124 221.01274Q42.128124 221.71587 42.846874 221.71587Q43.58125 221.71587 44.065624 221.01274Q44.565624 220.30962 44.565624 218.20024Q44.565624 216.07524 44.065624 215.38774Q43.58125 214.68462 42.83125 214.68462Q42.1125 214.68462 41.675 215.29399Q41.128124 216.07524 41.128124 218.20024Z" fill-rule="nonzero"/><path fill="#000000" d="M24.596874 183.41386L24.596874 184.42949L18.909374 184.42949Q18.909374 184.05449 19.034374 183.69511Q19.253124 183.11699 19.721874 182.55449Q20.20625 181.99199 21.1125 181.25761Q22.51875 180.10136 23.003124 179.42949Q23.503124 178.75761 23.503124 178.16386Q23.503124 177.53886 23.05 177.11699Q22.596874 176.67949 21.878124 176.67949Q21.1125 176.67949 20.659374 177.13261Q20.20625 177.58574 20.190624 178.39824L19.1125 178.28886Q19.221874 177.07011 19.940624 176.44511Q20.675 175.80449 21.909374 175.80449Q23.14375 175.80449 23.8625 176.49199Q24.58125 177.17949 24.58125 178.19511Q24.58125 178.71074 24.3625 179.21074Q24.159374 179.69511 23.659374 180.25761Q23.175 180.80449 22.05 181.75761Q21.096874 182.55449 20.815624 182.85136Q20.55 183.13261 20.378124 183.41386L24.596874 183.41386ZM26.05 180.19511Q26.05 178.66386 26.3625 177.74199Q26.675 176.80449 27.284374 176.30449Q27.909374 175.80449 28.846874 175.80449Q29.534374 175.80449 30.05 176.08574Q30.58125 176.36699 30.925 176.89824Q31.26875 177.41386 31.45625 178.16386Q31.64375 178.91386 31.64375 180.19511Q31.64375 181.71074 31.33125 182.63261Q31.034374 183.55449 30.409374 184.07011Q29.8 184.57011 28.846874 184.57011Q27.6125 184.57011 26.89375 183.67949Q26.05 182.61699 26.05 180.19511ZM27.128124 180.19511Q27.128124 182.30449 27.628124 183.00761Q28.128124 183.71074 28.846874 183.71074Q29.58125 183.71074 30.065624 183.00761Q30.565624 182.30449 30.565624 180.19511Q30.565624 178.07011 30.065624 177.38261Q29.58125 176.67949 28.83125 176.67949Q28.1125 176.67949 27.675 177.28886Q27.128124 178.07011 27.128124 180.19511ZM33.05 180.19511Q33.05 178.66386 33.3625 177.74199Q33.675 176.80449 34.284374 176.30449Q34.909374 175.80449 35.846874 175.80449Q36.534374 175.80449 37.05 176.08574Q37.58125 176.36699 37.925 176.89824Q38.26875 177.41386 38.45625 178.16386Q38.64375 178.91386 38.64375 180.19511Q38.64375 181.71074 38.33125 182.63261Q38.034374 183.55449 37.409374 184.07011Q36.8 184.57011 35.846874 184.57011Q34.6125 184.57011 33.89375 183.67949Q33.05 182.61699 33.05 180.19511ZM34.128124 180.19511Q34.128124 182.30449 34.628124 183.00761Q35.128124 183.71074 35.846874 183.71074Q36.58125 183.71074 37.065624 183.00761Q37.565624 182.30449 37.565624 180.19511Q37.565624 178.07011 37.065624 177.38261Q36.58125 176.67949 35.83125 176.67949Q35.1125 176.67949 34.675 177.28886Q34.128124 178.07011 34.128124 180.19511ZM40.05 180.19511Q40.05 178.66386 40.3625 177.74199Q40.675 176.80449 41.284374 176.30449Q41.909374 175.80449 42.846874 175.80449Q43.534374 175.80449 44.05 176.08574Q44.58125 176.36699 44.925 176.89824Q45.26875 177.41386 45.45625 178.16386Q45.64375 178.91386 45.64375 180.19511Q45.64375 181.71074 45.33125 182.63261Q45.034374 183.55449 44.409374 184.07011Q43.8 184.57011 42.846874 184.57011Q41.6125 184.57011 40.89375 183.67949Q40.05 182.61699 40.05 180.19511ZM41.128124 180.19511Q41.128124 182.30449 41.628124 183.00761Q42.128124 183.71074 42.846874 183.71074Q43.58125 183.71074 44.065624 183.00761Q44.565624 182.30449 44.565624 180.19511Q44.565624 178.07011 44.065624 177.38261Q43.58125 176.67949 42.83125 176.67949Q42.1125 176.67949 41.675 177.28886Q41.128124 178.07011 41.128124 180.19511Z" fill-rule="nonzero"/><path fill="#000000" d="M24.596874 145.40874L24.596874 146.42436L18.909374 146.42436Q18.909374 146.04936 19.034374 145.68999Q19.253124 145.11186 19.721874 144.54936Q20.20625 143.98686 21.1125 143.25249Q22.51875 142.09624 23.003124 141.42436Q23.503124 140.75249 23.503124 140.15874Q23.503124 139.53374 23.05 139.11186Q22.596874 138.67436 21.878124 138.67436Q21.1125 138.67436 20.659374 139.12749Q20.20625 139.58061 20.190624 140.39311L19.1125 140.28374Q19.221874 139.06499 19.940624 138.43999Q20.675 137.79936 21.909374 137.79936Q23.14375 137.79936 23.8625 138.48686Q24.58125 139.17436 24.58125 140.18999Q24.58125 140.70561 24.3625 141.20561Q24.159374 141.68999 23.659374 142.25249Q23.175 142.79936 22.05 143.75249Q21.096874 144.54936 20.815624 144.84624Q20.55 145.12749 20.378124 145.40874L24.596874 145.40874ZM26.05 144.17436L27.159374 144.08061Q27.284374 144.89311 27.721874 145.29936Q28.175 145.70561 28.815624 145.70561Q29.565624 145.70561 30.096874 145.12749Q30.628124 144.54936 30.628124 143.61186Q30.628124 142.70561 30.1125 142.18999Q29.6125 141.65874 28.784374 141.65874Q28.284374 141.65874 27.8625 141.89311Q27.45625 142.12749 27.221874 142.48686L26.2375 142.36186L27.065624 137.95561L31.346874 137.95561L31.346874 138.95561L27.909374 138.95561L27.45625 141.26811Q28.221874 140.72124 29.065624 140.72124Q30.190624 140.72124 30.95625 141.50249Q31.7375 142.28374 31.7375 143.51811Q31.7375 144.67436 31.065624 145.53374Q30.2375 146.56499 28.815624 146.56499Q27.64375 146.56499 26.89375 145.90874Q26.159374 145.25249 26.05 144.17436ZM33.05 142.18999Q33.05 140.65874 33.3625 139.73686Q33.675 138.79936 34.284374 138.29936Q34.909374 137.79936 35.846874 137.79936Q36.534374 137.79936 37.05 138.08061Q37.58125 138.36186 37.925 138.89311Q38.26875 139.40874 38.45625 140.15874Q38.64375 140.90874 38.64375 142.18999Q38.64375 143.70561 38.33125 144.62749Q38.034374 145.54936 37.409374 146.06499Q36.8 146.56499 35.846874 146.56499Q34.6125 146.56499 33.89375 145.67436Q33.05 144.61186 33.05 142.18999ZM34.128124 142.18999Q34.128124 144.29936 34.628124 145.00249Q35.128124 145.70561 35.846874 145.70561Q36.58125 145.70561 37.065624 145.00249Q37.565624 144.29936 37.565624 142.18999Q37.565624 140.06499 37.065624 139.37749Q36.58125 138.67436 35.83125 138.67436Q35.1125 138.67436 34.675 139.28374Q34.128124 140.06499 34.128124 142.18999ZM40.05 142.18999Q40.05 140.65874 40.3625 139.73686Q40.675 138.79936 41.284374 138.29936Q41.909374 137.79936 42.846874 137.79936Q43.534374 137.79936 44.05 138.08061Q44.58125 138.36186 44.925 138.89311Q45.26875 139.40874 45.45625 140.15874Q45.64375 140.90874 45.64375 142.18999Q45.64375 143.70561 45.33125 144.62749Q45.034374 145.54936 44.409374 146.06499Q43.8 146.56499 42.846874 146.56499Q41.6125 146.56499 40.89375 145.67436Q40.05 144.61186 40.05 142.18999ZM41.128124 142.18999Q41.128124 144.29936 41.628124 145.00249Q42.128124 145.70561 42.846874 145.70561Q43.58125 145.70561 44.065624 145.00249Q44.565624 144.29936 44.565624 142.18999Q44.565624 140.06499 44.065624 139.37749Q43.58125 138.67436 42.83125 138.67436Q42.1125 138.67436 41.675 139.28374Q41.128124 140.06499 41.128124 142.18999Z" fill-rule="nonzero"/><path fill="#000000" d="M19.05 106.1536L20.1125 106.01298Q20.284374 106.9036 20.721874 107.30985Q21.159374 107.70048 21.784374 107.70048Q22.534374 107.70048 23.05 107.18485Q23.565624 106.66923 23.565624 105.9036Q23.565624 105.18485 23.08125 104.7161Q22.6125 104.23173 21.878124 104.23173Q21.58125 104.23173 21.128124 104.35673L21.253124 103.41923Q21.3625 103.43485 21.425 103.43485Q22.096874 103.43485 22.628124 103.0911Q23.175 102.73173 23.175 101.99735Q23.175 101.41923 22.784374 101.04423Q22.39375 100.6536 21.76875 100.6536Q21.159374 100.6536 20.7375 101.04423Q20.33125 101.43485 20.221874 102.20048L19.159374 102.01298Q19.346874 100.9661 20.034374 100.38798Q20.721874 99.79423 21.7375 99.79423Q22.440624 99.79423 23.034374 100.10673Q23.628124 100.4036 23.940624 100.91923Q24.253124 101.43485 24.253124 102.0286Q24.253124 102.57548 23.95625 103.04423Q23.659374 103.49735 23.08125 103.76298Q23.83125 103.93485 24.253124 104.49735Q24.675 105.04423 24.675 105.88798Q24.675 107.01298 23.846874 107.79423Q23.034374 108.57548 21.784374 108.57548Q20.659374 108.57548 19.909374 107.9036Q19.159374 107.2161 19.05 106.1536ZM26.05 104.18485Q26.05 102.6536 26.3625 101.73173Q26.675 100.79423 27.284374 100.29423Q27.909374 99.79423 28.846874 99.79423Q29.534374 99.79423 30.05 100.07548Q30.58125 100.35673 30.925 100.88798Q31.26875 101.4036 31.45625 102.1536Q31.64375 102.9036 31.64375 104.18485Q31.64375 105.70048 31.33125 106.62235Q31.034374 107.54423 30.409374 108.05985Q29.8 108.55985 28.846874 108.55985Q27.6125 108.55985 26.89375 107.66923Q26.05 106.60673 26.05 104.18485ZM27.128124 104.18485Q27.128124 106.29423 27.628124 106.99735Q28.128124 107.70048 28.846874 107.70048Q29.58125 107.70048 30.065624 106.99735Q30.565624 106.29423 30.565624 104.18485Q30.565624 102.05985 30.065624 101.37235Q29.58125 100.66923 28.83125 100.66923Q28.1125 100.66923 27.675 101.2786Q27.128124 102.05985 27.128124 104.18485ZM33.05 104.18485Q33.05 102.6536 33.3625 101.73173Q33.675 100.79423 34.284374 100.29423Q34.909374 99.79423 35.846874 99.79423Q36.534374 99.79423 37.05 100.07548Q37.58125 100.35673 37.925 100.88798Q38.26875 101.4036 38.45625 102.1536Q38.64375 102.9036 38.64375 104.18485Q38.64375 105.70048 38.33125 106.62235Q38.034374 107.54423 37.409374 108.05985Q36.8 108.55985 35.846874 108.55985Q34.6125 108.55985 33.89375 107.66923Q33.05 106.60673 33.05 104.18485ZM34.128124 104.18485Q34.128124 106.29423 34.628124 106.99735Q35.128124 107.70048 35.846874 107.70048Q36.58125 107.70048 37.065624 106.99735Q37.565624 106.29423 37.565624 104.18485Q37.565624 102.05985 37.065624 101.37235Q36.58125 100.66923 35.83125 100.66923Q35.1125 100.66923 34.675 101.2786Q34.128124 102.05985 34.128124 104.18485ZM40.05 104.18485Q40.05 102.6536 40.3625 101.73173Q40.675 100.79423 41.284374 100.29423Q41.909374 99.79423 42.846874 99.79423Q43.534374 99.79423 44.05 100.07548Q44.58125 100.35673 44.925 100.88798Q45.26875 101.4036 45.45625 102.1536Q45.64375 102.9036 45.64375 104.18485Q45.64375 105.70048 45.33125 106.62235Q45.034374 107.54423 44.409374 108.05985Q43.8 108.55985 42.846874 108.55985Q41.6125 108.55985 40.89375 107.66923Q40.05 106.60673 40.05 104.18485ZM41.128124 104.18485Q41.128124 106.29423 41.628124 106.99735Q42.128124 107.70048 42.846874 107.70048Q43.58125 107.70048 44.065624 106.99735Q44.565624 106.29423 44.565624 104.18485Q44.565624 102.05985 44.065624 101.37235Q43.58125 100.66923 42.83125 100.66923Q42.1125 100.66923 41.675 101.2786Q41.128124 102.05985 41.128124 104.18485Z" fill-rule="nonzero"/><path fill="#000000" d="M65.40944 349.45L64.362564 349.45L64.362564 342.73126Q63.97194 343.09064 63.34694 343.46564Q62.737564 343.825 62.25319 343.9969L62.25319 342.98126Q63.12819 342.5594 63.78444 341.98126Q64.456314 341.3875 64.737564 340.825L65.40944 340.825L65.40944 349.45ZM67.94069 349.59064L70.425064 340.71564L71.268814 340.71564L68.78444 349.59064L67.94069 349.59064ZM75.40944 349.45L74.362564 349.45L74.362564 342.73126Q73.97194 343.09064 73.34694 343.46564Q72.737564 343.825 72.25319 343.9969L72.25319 342.98126Q73.12819 342.5594 73.78444 341.98126Q74.456314 341.3875 74.737564 340.825L75.40944 340.825L75.40944 349.45ZM77.94069 349.59064L80.425064 340.71564L81.268814 340.71564L78.78444 349.59064L77.94069 349.59064ZM86.987564 348.4344L86.987564 349.45L81.300064 349.45Q81.300064 349.075 81.425064 348.71564Q81.643814 348.1375 82.112564 347.575Q82.59694 347.0125 83.50319 346.27814Q84.90944 345.1219 85.393814 344.45Q85.893814 343.77814 85.893814 343.1844Q85.893814 342.5594 85.44069 342.1375Q84.987564 341.7 84.268814 341.7Q83.50319 341.7 83.050064 342.15314Q82.59694 342.60626 82.581314 343.41876L81.50319 343.3094Q81.612564 342.09064 82.331314 341.46564Q83.06569 340.825 84.300064 340.825Q85.53444 340.825 86.25319 341.5125Q86.97194 342.2 86.97194 343.21564Q86.97194 343.73126 86.75319 344.23126Q86.550064 344.71564 86.050064 345.27814Q85.56569 345.825 84.44069 346.77814Q83.487564 347.575 83.206314 347.8719Q82.94069 348.15314 82.768814 348.4344L86.987564 348.4344ZM88.44069 345.21564Q88.44069 343.6844 88.75319 342.7625Q89.06569 341.825 89.675064 341.325Q90.300064 340.825 91.237564 340.825Q91.925064 340.825 92.44069 341.10626Q92.97194 341.3875 93.31569 341.91876Q93.65944 342.4344 93.84694 343.1844Q94.03444 343.9344 94.03444 345.21564Q94.03444 346.73126 93.72194 347.65314Q93.425064 348.575 92.800064 349.09064Q92.19069 349.59064 91.237564 349.59064Q90.00319 349.59064 89.28444 348.7Q88.44069 347.6375 88.44069 345.21564ZM89.518814 345.21564Q89.518814 347.325 90.018814 348.02814Q90.518814 348.73126 91.237564 348.73126Q91.97194 348.73126 92.456314 348.02814Q92.956314 347.325 92.956314 345.21564Q92.956314 343.09064 92.456314 342.40314Q91.97194 341.7 91.22194 341.7Q90.50319 341.7 90.06569 342.3094Q89.518814 343.09064 89.518814 345.21564ZM100.987564 348.4344L100.987564 349.45L95.300064 349.45Q95.300064 349.075 95.425064 348.71564Q95.643814 348.1375 96.112564 347.575Q96.59694 347.0125 97.50319 346.27814Q98.90944 345.1219 99.393814 344.45Q99.893814 343.77814 99.893814 343.1844Q99.893814 342.5594 99.44069 342.1375Q98.987564 341.7 98.268814 341.7Q97.50319 341.7 97.050064 342.15314Q96.59694 342.60626 96.581314 343.41876L95.50319 343.3094Q95.612564 342.09064 96.331314 341.46564Q97.06569 340.825 98.300064 340.825Q99.53444 340.825 100.25319 341.5125Q100.97194 342.2 100.97194 343.21564Q100.97194 343.73126 100.75319 344.23126Q100.550064 344.71564 100.050064 345.27814Q99.56569 345.825 98.44069 346.77814Q97.487564 347.575 97.206314 347.8719Q96.94069 348.15314 96.768814 348.4344L100.987564 348.4344ZM106.40944 349.45L105.362564 349.45L105.362564 342.73126Q104.97194 343.09064 104.34694 343.46564Q103.737564 343.825 103.25319 343.9969L103.25319 342.98126Q104.12819 342.5594 104.78444 341.98126Q105.456314 341.3875 105.737564 340.825L106.40944 340.825L106.40944 349.45Z" fill-rule="nonzero"/><path fill="#000000" d="M227.36288 349.45L226.31601 349.45L226.31601 342.73126Q225.92538 343.09064 225.30038 343.46564Q224.69101 343.825 224.20663 343.9969L224.20663 342.98126Q225.08163 342.5594 225.73788 341.98126Q226.40976 341.3875 226.69101 340.825L227.36288 340.825L227.36288 349.45ZM229.89413 349.59064L232.37851 340.71564L233.22226 340.71564L230.73788 349.59064L229.89413 349.59064ZM237.36288 349.45L236.31601 349.45L236.31601 342.73126Q235.92538 343.09064 235.30038 343.46564Q234.69101 343.825 234.20663 343.9969L234.20663 342.98126Q235.08163 342.5594 235.73788 341.98126Q236.40976 341.3875 236.69101 340.825L237.36288 340.825L237.36288 349.45ZM239.89413 349.59064L242.37851 340.71564L243.22226 340.71564L240.73788 349.59064L239.89413 349.59064ZM248.94101 348.4344L248.94101 349.45L243.25351 349.45Q243.25351 349.075 243.37851 348.71564Q243.59726 348.1375 244.06601 347.575Q244.55038 347.0125 245.45663 346.27814Q246.86288 345.1219 247.34726 344.45Q247.84726 343.77814 247.84726 343.1844Q247.84726 342.5594 247.39413 342.1375Q246.94101 341.7 246.22226 341.7Q245.45663 341.7 245.00351 342.15314Q244.55038 342.60626 244.53476 343.41876L243.45663 343.3094Q243.56601 342.09064 244.28476 341.46564Q245.01913 340.825 246.25351 340.825Q247.48788 340.825 248.20663 341.5125Q248.92538 342.2 248.92538 343.21564Q248.92538 343.73126 248.70663 344.23126Q248.50351 344.71564 248.00351 345.27814Q247.51913 345.825 246.39413 346.77814Q245.44101 347.575 245.15976 347.8719Q244.89413 348.15314 244.72226 348.4344L248.94101 348.4344ZM250.39413 345.21564Q250.39413 343.6844 250.70663 342.7625Q251.01913 341.825 251.62851 341.325Q252.25351 340.825 253.19101 340.825Q253.87851 340.825 254.39413 341.10626Q254.92538 341.3875 255.26913 341.91876Q255.61288 342.4344 255.80038 343.1844Q255.98788 343.9344 255.98788 345.21564Q255.98788 346.73126 255.67538 347.65314Q255.37851 348.575 254.75351 349.09064Q254.14413 349.59064 253.19101 349.59064Q251.95663 349.59064 251.23788 348.7Q250.39413 347.6375 250.39413 345.21564ZM251.47226 345.21564Q251.47226 347.325 251.97226 348.02814Q252.47226 348.73126 253.19101 348.73126Q253.92538 348.73126 254.40976 348.02814Q254.90976 347.325 254.90976 345.21564Q254.90976 343.09064 254.40976 342.40314Q253.92538 341.7 253.17538 341.7Q252.45663 341.7 252.01913 342.3094Q251.47226 343.09064 251.47226 345.21564ZM262.941 348.4344L262.941 349.45L257.2535 349.45Q257.2535 349.075 257.3785 348.71564Q257.59726 348.1375 258.066 347.575Q258.55038 347.0125 259.45663 346.27814Q260.86288 345.1219 261.34726 344.45Q261.84726 343.77814 261.84726 343.1844Q261.84726 342.5594 261.39413 342.1375Q260.941 341.7 260.22226 341.7Q259.45663 341.7 259.0035 342.15314Q258.55038 342.60626 258.53476 343.41876L257.45663 343.3094Q257.566 342.09064 258.28476 341.46564Q259.01913 340.825 260.2535 340.825Q261.48788 340.825 262.20663 341.5125Q262.92538 342.2 262.92538 343.21564Q262.92538 343.73126 262.70663 344.23126Q262.5035 344.71564 262.0035 345.27814Q261.51913 345.825 260.39413 346.77814Q259.441 347.575 259.15976 347.8719Q258.89413 348.15314 258.72226 348.4344L262.941 348.4344ZM269.941 348.4344L269.941 349.45L264.2535 349.45Q264.2535 349.075 264.3785 348.71564Q264.59726 348.1375 265.066 347.575Q265.55038 347.0125 266.45663 346.27814Q267.86288 345.1219 268.34726 344.45Q268.84726 343.77814 268.84726 343.1844Q268.84726 342.5594 268.39413 342.1375Q267.941 341.7 267.22226 341.7Q266.45663 341.7 266.0035 342.15314Q265.55038 342.60626 265.53476 343.41876L264.45663 343.3094Q264.566 342.09064 265.28476 341.46564Q266.01913 340.825 267.2535 340.825Q268.48788 340.825 269.20663 341.5125Q269.92538 342.2 269.92538 343.21564Q269.92538 343.73126 269.70663 344.23126Q269.5035 344.71564 269.0035 345.27814Q268.51913 345.825 267.39413 346.77814Q266.441 347.575 266.15976 347.8719Q265.89413 348.15314 265.72226 348.4344L269.941 348.4344Z" fill-rule="nonzero"/><path fill="#000000" d="M389.3163 349.45L388.26944 349.45L388.26944 342.73126Q387.8788 343.09064 387.2538 343.46564Q386.64444 343.825 386.16006 343.9969L386.16006 342.98126Q387.03506 342.5594 387.6913 341.98126Q388.3632 341.3875 388.64444 340.825L389.3163 340.825L389.3163 349.45ZM391.84756 349.59064L394.33194 340.71564L395.1757 340.71564L392.6913 349.59064L391.84756 349.59064ZM399.3163 349.45L398.26944 349.45L398.26944 342.73126Q397.8788 343.09064 397.2538 343.46564Q396.64444 343.825 396.16006 343.9969L396.16006 342.98126Q397.03506 342.5594 397.6913 341.98126Q398.3632 341.3875 398.64444 340.825L399.3163 340.825L399.3163 349.45ZM401.84756 349.59064L404.33194 340.71564L405.1757 340.71564L402.6913 349.59064L401.84756 349.59064ZM410.89444 348.4344L410.89444 349.45L405.20694 349.45Q405.20694 349.075 405.33194 348.71564Q405.5507 348.1375 406.01944 347.575Q406.5038 347.0125 407.41006 346.27814Q408.8163 345.1219 409.3007 344.45Q409.8007 343.77814 409.8007 343.1844Q409.8007 342.5594 409.34756 342.1375Q408.89444 341.7 408.1757 341.7Q407.41006 341.7 406.95694 342.15314Q406.5038 342.60626 406.4882 343.41876L405.41006 343.3094Q405.51944 342.09064 406.2382 341.46564Q406.97256 340.825 408.20694 340.825Q409.4413 340.825 410.16006 341.5125Q410.8788 342.2 410.8788 343.21564Q410.8788 343.73126 410.66006 344.23126Q410.45694 344.71564 409.95694 345.27814Q409.47256 345.825 408.34756 346.77814Q407.39444 347.575 407.1132 347.8719Q406.84756 348.15314 406.6757 348.4344L410.89444 348.4344ZM412.34756 345.21564Q412.34756 343.6844 412.66006 342.7625Q412.97256 341.825 413.58194 341.325Q414.20694 340.825 415.14444 340.825Q415.83194 340.825 416.34756 341.10626Q416.8788 341.3875 417.22256 341.91876Q417.5663 342.4344 417.7538 343.1844Q417.9413 343.9344 417.9413 345.21564Q417.9413 346.73126 417.6288 347.65314Q417.33194 348.575 416.70694 349.09064Q416.09756 349.59064 415.14444 349.59064Q413.91006 349.59064 413.1913 348.7Q412.34756 347.6375 412.34756 345.21564ZM413.4257 345.21564Q413.4257 347.325 413.9257 348.02814Q414.4257 348.73126 415.14444 348.73126Q415.8788 348.73126 416.3632 348.02814Q416.8632 347.325 416.8632 345.21564Q416.8632 343.09064 416.3632 342.40314Q415.8788 341.7 415.1288 341.7Q414.41006 341.7 413.97256 342.3094Q413.4257 343.09064 413.4257 345.21564ZM424.89444 348.4344L424.89444 349.45L419.20694 349.45Q419.20694 349.075 419.33194 348.71564Q419.5507 348.1375 420.01944 347.575Q420.5038 347.0125 421.41006 346.27814Q422.8163 345.1219 423.3007 344.45Q423.8007 343.77814 423.8007 343.1844Q423.8007 342.5594 423.34756 342.1375Q422.89444 341.7 422.1757 341.7Q421.41006 341.7 420.95694 342.15314Q420.5038 342.60626 420.4882 343.41876L419.41006 343.3094Q419.51944 342.09064 420.2382 341.46564Q420.97256 340.825 422.20694 340.825Q423.4413 340.825 424.16006 341.5125Q424.8788 342.2 424.8788 343.21564Q424.8788 343.73126 424.66006 344.23126Q424.45694 344.71564 423.95694 345.27814Q423.47256 345.825 422.34756 346.77814Q421.39444 347.575 421.1132 347.8719Q420.84756 348.15314 420.6757 348.4344L424.89444 348.4344ZM426.34756 347.1844L427.41006 347.04376Q427.58194 347.9344 428.01944 348.34064Q428.45694 348.73126 429.08194 348.73126Q429.83194 348.73126 430.34756 348.21564Q430.8632 347.7 430.8632 346.9344Q430.8632 346.21564 430.3788 345.7469Q429.91006 345.2625 429.1757 345.2625Q428.8788 345.2625 428.4257 345.3875L428.5507 344.45Q428.66006 344.46564 428.72256 344.46564Q429.39444 344.46564 429.9257 344.1219Q430.47256 343.7625 430.47256 343.02814Q430.47256 342.45 430.08194 342.075Q429.6913 341.6844 429.0663 341.6844Q428.45694 341.6844 428.03506 342.075Q427.6288 342.46564 427.51944 343.23126L426.45694 343.04376Q426.64444 341.9969 427.33194 341.41876Q428.01944 340.825 429.03506 340.825Q429.7382 340.825 430.33194 341.1375Q430.9257 341.4344 431.2382 341.95Q431.5507 342.46564 431.5507 343.0594Q431.5507 343.60626 431.2538 344.075Q430.95694 344.52814 430.3788 344.79376Q431.1288 344.96564 431.5507 345.52814Q431.97256 346.075 431.97256 346.91876Q431.97256 348.04376 431.14444 348.825Q430.33194 349.60626 429.08194 349.60626Q427.95694 349.60626 427.20694 348.9344Q426.45694 348.2469 426.34756 347.1844Z" fill-rule="nonzero"/><path fill="#000000" d="M551.2698 349.45L550.2229 349.45L550.2229 342.73126Q549.8323 343.09064 549.2073 343.46564Q548.5979 343.825 548.1135 343.9969L548.1135 342.98126Q548.9885 342.5594 549.6448 341.98126Q550.31665 341.3875 550.5979 340.825L551.2698 340.825L551.2698 349.45ZM553.801 349.59064L556.2854 340.71564L557.12915 340.71564L554.6448 349.59064L553.801 349.59064ZM561.2698 349.45L560.2229 349.45L560.2229 342.73126Q559.8323 343.09064 559.2073 343.46564Q558.5979 343.825 558.1135 343.9969L558.1135 342.98126Q558.9885 342.5594 559.6448 341.98126Q560.31665 341.3875 560.5979 340.825L561.2698 340.825L561.2698 349.45ZM563.801 349.59064L566.2854 340.71564L567.12915 340.71564L564.6448 349.59064L563.801 349.59064ZM572.8479 348.4344L572.8479 349.45L567.1604 349.45Q567.1604 349.075 567.2854 348.71564Q567.50415 348.1375 567.9729 347.575Q568.4573 347.0125 569.3635 346.27814Q570.7698 345.1219 571.25415 344.45Q571.75415 343.77814 571.75415 343.1844Q571.75415 342.5594 571.301 342.1375Q570.8479 341.7 570.12915 341.7Q569.3635 341.7 568.9104 342.15314Q568.4573 342.60626 568.44165 343.41876L567.3635 343.3094Q567.4729 342.09064 568.19165 341.46564Q568.926 340.825 570.1604 340.825Q571.3948 340.825 572.1135 341.5125Q572.8323 342.2 572.8323 343.21564Q572.8323 343.73126 572.6135 344.23126Q572.4104 344.71564 571.9104 345.27814Q571.426 345.825 570.301 346.77814Q569.3479 347.575 569.06665 347.8719Q568.801 348.15314 568.62915 348.4344L572.8479 348.4344ZM574.301 345.21564Q574.301 343.6844 574.6135 342.7625Q574.926 341.825 575.5354 341.325Q576.1604 340.825 577.0979 340.825Q577.7854 340.825 578.301 341.10626Q578.8323 341.3875 579.176 341.91876Q579.5198 342.4344 579.7073 343.1844Q579.8948 343.9344 579.8948 345.21564Q579.8948 346.73126 579.5823 347.65314Q579.2854 348.575 578.6604 349.09064Q578.051 349.59064 577.0979 349.59064Q575.8635 349.59064 575.1448 348.7Q574.301 347.6375 574.301 345.21564ZM575.37915 345.21564Q575.37915 347.325 575.87915 348.02814Q576.37915 348.73126 577.0979 348.73126Q577.8323 348.73126 578.31665 348.02814Q578.81665 347.325 578.81665 345.21564Q578.81665 343.09064 578.31665 342.40314Q577.8323 341.7 577.0823 341.7Q576.3635 341.7 575.926 342.3094Q575.37915 343.09064 575.37915 345.21564ZM586.8479 348.4344L586.8479 349.45L581.1604 349.45Q581.1604 349.075 581.2854 348.71564Q581.50415 348.1375 581.9729 347.575Q582.4573 347.0125 583.3635 346.27814Q584.7698 345.1219 585.25415 344.45Q585.75415 343.77814 585.75415 343.1844Q585.75415 342.5594 585.301 342.1375Q584.8479 341.7 584.12915 341.7Q583.3635 341.7 582.9104 342.15314Q582.4573 342.60626 582.44165 343.41876L581.3635 343.3094Q581.4729 342.09064 582.19165 341.46564Q582.926 340.825 584.1604 340.825Q585.3948 340.825 586.1135 341.5125Q586.8323 342.2 586.8323 343.21564Q586.8323 343.73126 586.6135 344.23126Q586.4104 344.71564 585.9104 345.27814Q585.426 345.825 584.301 346.77814Q583.3479 347.575 583.06665 347.8719Q582.801 348.15314 582.62915 348.4344L586.8479 348.4344ZM591.676 349.45L591.676 347.3875L587.9573 347.3875L587.9573 346.41876L591.87915 340.85626L592.7385 340.85626L592.7385 346.41876L593.8948 346.41876L593.8948 347.3875L592.7385 347.3875L592.7385 349.45L591.676 349.45ZM591.676 346.41876L591.676 342.5594L588.9885 346.41876L591.676 346.41876Z" fill-rule="nonzero"/><path fill="#999999" d="M24.096874 65.83125L24.096874 62.284374Q23.815624 62.675 23.3 62.95625Q22.784374 63.221874 22.20625 63.221874Q20.909374 63.221874 19.971874 62.190624Q19.05 61.14375 19.05 59.346874Q19.05 58.253124 19.425 57.39375Q19.8 56.51875 20.51875 56.08125Q21.2375 55.628124 22.1125 55.628124Q23.45625 55.628124 24.221874 56.753124L24.221874 55.784374L25.33125 55.784374L25.33125 65.83125L24.096874 65.83125ZM20.3 59.39375Q20.3 60.8 20.89375 61.503124Q21.4875 62.20625 22.3 62.20625Q23.096874 62.20625 23.659374 61.534374Q24.221874 60.8625 24.221874 59.503124Q24.221874 58.065624 23.628124 57.33125Q23.034374 56.596874 22.221874 56.596874Q21.425 56.596874 20.8625 57.284374Q20.3 57.95625 20.3 59.39375ZM32.2375 63.05L32.2375 61.9875Q31.378124 63.221874 29.925 63.221874Q29.284374 63.221874 28.721874 62.971874Q28.175 62.721874 27.89375 62.346874Q27.628124 61.971874 27.51875 61.440624Q27.440624 61.08125 27.440624 60.284374L27.440624 55.784374L28.675 55.784374L28.675 59.815624Q28.675 60.784374 28.753124 61.1125Q28.8625 61.596874 29.2375 61.878124Q29.6125 62.159374 30.175 62.159374Q30.721874 62.159374 31.20625 61.878124Q31.690624 61.58125 31.89375 61.096874Q32.096874 60.6125 32.096874 59.675L32.096874 55.784374L33.33125 55.784374L33.33125 63.05L32.2375 63.05ZM40.20625 62.159374Q39.534374 62.7375 38.89375 62.9875Q38.26875 63.221874 37.534374 63.221874Q36.346874 63.221874 35.690624 62.64375Q35.05 62.05 35.05 61.128124Q35.05 60.596874 35.284374 60.159374Q35.534374 59.721874 35.925 59.45625Q36.33125 59.190624 36.815624 59.05Q37.175 58.95625 37.909374 58.8625Q39.409374 58.690624 40.1125 58.440624Q40.1125 58.190624 40.1125 58.128124Q40.1125 57.3625 39.76875 57.065624Q39.3 56.64375 38.3625 56.64375Q37.503124 56.64375 37.08125 56.95625Q36.675 57.253124 36.471874 58.01875L35.26875 57.8625Q35.425 57.08125 35.8 56.6125Q36.190624 56.14375 36.89375 55.89375Q37.6125 55.628124 38.55 55.628124Q39.471874 55.628124 40.05 55.846874Q40.628124 56.065624 40.89375 56.39375Q41.175 56.721874 41.284374 57.2375Q41.346874 57.55 41.346874 58.3625L41.346874 60.003124Q41.346874 61.721874 41.425 62.175Q41.503124 62.628124 41.7375 63.05L40.45625 63.05Q40.26875 62.659374 40.20625 62.159374ZM40.1125 59.409374Q39.440624 59.675 38.096874 59.878124Q37.346874 59.9875 37.01875 60.128124Q36.70625 60.253124 36.534374 60.51875Q36.3625 60.784374 36.3625 61.096874Q36.3625 61.596874 36.7375 61.925Q37.1125 62.253124 37.83125 62.253124Q38.55 62.253124 39.096874 61.940624Q39.64375 61.628124 39.909374 61.08125Q40.1125 60.675 40.1125 59.8625L40.1125 59.409374ZM43.45625 63.05L43.45625 55.784374L44.565624 55.784374L44.565624 56.89375Q44.9875 56.1125 45.346874 55.878124Q45.70625 55.628124 46.14375 55.628124Q46.76875 55.628124 47.409374 56.01875L46.9875 57.159374Q46.534374 56.89375 46.08125 56.89375Q45.675 56.89375 45.346874 57.14375Q45.034374 57.378124 44.89375 57.815624Q44.690624 58.471874 44.690624 59.253124L44.690624 63.05L43.45625 63.05ZM51.159374 61.95625L51.33125 63.034374Q50.815624 63.14375 50.409374 63.14375Q49.7375 63.14375 49.3625 62.940624Q49.003124 62.721874 48.846874 62.378124Q48.70625 62.034374 48.70625 60.925L48.70625 56.753124L47.8 56.753124L47.8 55.784374L48.70625 55.784374L48.70625 53.9875L49.925 53.253124L49.925 55.784374L51.159374 55.784374L51.159374 56.753124L49.925 56.753124L49.925 60.9875Q49.925 61.51875 49.9875 61.675Q50.05 61.815624 50.190624 61.909374Q50.346874 62.003124 50.6125 62.003124Q50.83125 62.003124 51.159374 61.95625ZM52.01875 59.425Q52.01875 57.409374 53.14375 56.425Q54.065624 55.628124 55.425 55.628124Q56.909374 55.628124 57.8625 56.6125Q58.815624 57.58125 58.815624 59.315624Q58.815624 60.721874 58.39375 61.534374Q57.971874 62.33125 57.159374 62.784374Q56.3625 63.221874 55.425 63.221874Q53.89375 63.221874 52.95625 62.2375Q52.01875 61.253124 52.01875 59.425ZM53.284374 59.425Q53.284374 60.815624 53.89375 61.51875Q54.503124 62.20625 55.425 62.20625Q56.33125 62.20625 56.940624 61.503124Q57.55 60.8 57.55 59.378124Q57.55 58.034374 56.940624 57.346874Q56.33125 56.64375 55.425 56.64375Q54.503124 56.64375 53.89375 57.33125Q53.284374 58.01875 53.284374 59.425ZM59.9875 60.034374L59.9875 58.8L63.76875 58.8L63.76875 60.034374L59.9875 60.034374ZM70.19063 63.05L70.19063 62.128124Q69.4875 63.221874 68.15938 63.221874Q67.28438 63.221874 66.55 62.7375Q65.83125 62.253124 65.425 61.39375Q65.03438 60.534374 65.03438 59.425Q65.03438 58.346874 65.39375 57.45625Q65.75313 56.565624 66.47188 56.096874Q67.20625 55.628124 68.09688 55.628124Q68.75313 55.628124 69.26875 55.909374Q69.78438 56.175 70.09688 56.628124L70.09688 53.034374L71.33125 53.034374L71.33125 63.05L70.19063 63.05ZM66.3 59.425Q66.3 60.815624 66.87813 61.51875Q67.47188 62.20625 68.26875 62.20625Q69.08125 62.20625 69.64375 61.55Q70.20625 60.878124 70.20625 59.534374Q70.20625 58.034374 69.62813 57.346874Q69.05 56.64375 68.22188 56.64375Q67.39375 56.64375 66.84688 57.315624Q66.3 57.9875 66.3 59.425ZM78.44063 60.70625L79.72188 60.8625Q79.40938 61.9875 78.59688 62.6125Q77.78438 63.221874 76.51875 63.221874Q74.925 63.221874 73.9875 62.2375Q73.06563 61.253124 73.06563 59.4875Q73.06563 57.64375 74.00313 56.64375Q74.95625 55.628124 76.45625 55.628124Q77.90938 55.628124 78.83125 56.628124Q79.75313 57.6125 79.75313 59.409374Q79.75313 59.51875 79.75313 59.7375L74.33125 59.7375Q74.40938 60.925 75.00313 61.565624Q75.6125 62.20625 76.53438 62.20625Q77.20625 62.20625 77.675 61.846874Q78.15938 61.4875 78.44063 60.70625ZM74.40938 58.721874L78.45625 58.721874Q78.37813 57.8 77.9875 57.346874Q77.40938 56.64375 76.47188 56.64375Q75.6125 56.64375 75.03438 57.20625Q74.47188 57.76875 74.40938 58.721874ZM83.4875 63.05L80.72188 55.784374L82.03438 55.784374L83.58125 60.14375Q83.83125 60.846874 84.05 61.596874Q84.22188 61.01875 84.50313 60.221874L86.12813 55.784374L87.39375 55.784374L84.64375 63.05L83.4875 63.05ZM87.55 63.221874L90.45625 52.8625L91.44063 52.8625L88.53438 63.221874L87.55 63.221874ZM97.09688 65.83125L97.09688 62.284374Q96.81563 62.675 96.3 62.95625Q95.78438 63.221874 95.20625 63.221874Q93.90938 63.221874 92.97188 62.190624Q92.05 61.14375 92.05 59.346874Q92.05 58.253124 92.425 57.39375Q92.8 56.51875 93.51875 56.08125Q94.2375 55.628124 95.1125 55.628124Q96.45625 55.628124 97.22188 56.753124L97.22188 55.784374L98.33125 55.784374L98.33125 65.83125L97.09688 65.83125ZM93.3 59.39375Q93.3 60.8 93.89375 61.503124Q94.4875 62.20625 95.3 62.20625Q96.09688 62.20625 96.65938 61.534374Q97.22188 60.8625 97.22188 59.503124Q97.22188 58.065624 96.62813 57.33125Q96.03438 56.596874 95.22188 56.596874Q94.425 56.596874 93.8625 57.284374Q93.3 57.95625 93.3 59.39375ZM105.2375 63.05L105.2375 61.9875Q104.37813 63.221874 102.925 63.221874Q102.28438 63.221874 101.72188 62.971874Q101.175 62.721874 100.89375 62.346874Q100.62813 61.971874 100.51875 61.440624Q100.44063 61.08125 100.44063 60.284374L100.44063 55.784374L101.675 55.784374L101.675 59.815624Q101.675 60.784374 101.75313 61.1125Q101.8625 61.596874 102.2375 61.878124Q102.6125 62.159374 103.175 62.159374Q103.72188 62.159374 104.20625 61.878124Q104.69063 61.58125 104.89375 61.096874Q105.09688 60.6125 105.09688 59.675L105.09688 55.784374L106.33125 55.784374L106.33125 63.05L105.2375 63.05ZM113.20625 62.159374Q112.53438 62.7375 111.89375 62.9875Q111.26875 63.221874 110.53438 63.221874Q109.34688 63.221874 108.69063 62.64375Q108.05 62.05 108.05 61.128124Q108.05 60.596874 108.28438 60.159374Q108.53438 59.721874 108.925 59.45625Q109.33125 59.190624 109.81563 59.05Q110.175 58.95625 110.90938 58.8625Q112.40938 58.690624 113.1125 58.440624Q113.1125 58.190624 113.1125 58.128124Q113.1125 57.3625 112.76875 57.065624Q112.3 56.64375 111.3625 56.64375Q110.50313 56.64375 110.08125 56.95625Q109.675 57.253124 109.47188 58.01875L108.26875 57.8625Q108.425 57.08125 108.8 56.6125Q109.19063 56.14375 109.89375 55.89375Q110.6125 55.628124 111.55 55.628124Q112.47188 55.628124 113.05 55.846874Q113.62813 56.065624 113.89375 56.39375Q114.175 56.721874 114.28438 57.2375Q114.34688 57.55 114.34688 58.3625L114.34688 60.003124Q114.34688 61.721874 114.425 62.175Q114.50313 62.628124 114.7375 63.05L113.45625 63.05Q113.26875 62.659374 113.20625 62.159374ZM113.1125 59.409374Q112.44063 59.675 111.09688 59.878124Q110.34688 59.9875 110.01875 60.128124Q109.70625 60.253124 109.53438 60.51875Q109.3625 60.784374 109.3625 61.096874Q109.3625 61.596874 109.7375 61.925Q110.1125 62.253124 110.83125 62.253124Q111.55 62.253124 112.09688 61.940624Q112.64375 61.628124 112.90938 61.08125Q113.1125 60.675 113.1125 59.8625L113.1125 59.409374ZM116.45625 63.05L116.45625 55.784374L117.56563 55.784374L117.56563 56.89375Q117.9875 56.1125 118.34688 55.878124Q118.70625 55.628124 119.14375 55.628124Q119.76875 55.628124 120.40938 56.01875L119.9875 57.159374Q119.53438 56.89375 119.08125 56.89375Q118.675 56.89375 118.34688 57.14375Q118.03438 57.378124 117.89375 57.815624Q117.69063 58.471874 117.69063 59.253124L117.69063 63.05L116.45625 63.05ZM124.15938 61.95625L124.33125 63.034374Q123.81563 63.14375 123.40938 63.14375Q122.7375 63.14375 122.3625 62.940624Q122.00313 62.721874 121.84688 62.378124Q121.70625 62.034374 121.70625 60.925L121.70625 56.753124L120.8 56.753124L120.8 55.784374L121.70625 55.784374L121.70625 53.9875L122.925 53.253124L122.925 55.784374L124.15938 55.784374L124.15938 56.753124L122.925 56.753124L122.925 60.9875Q122.925 61.51875 122.9875 61.675Q123.05 61.815624 123.19063 61.909374Q123.34688 62.003124 123.6125 62.003124Q123.83125 62.003124 124.15938 61.95625ZM125.01875 59.425Q125.01875 57.409374 126.14375 56.425Q127.06563 55.628124 128.425 55.628124Q129.90938 55.628124 130.8625 56.6125Q131.81563 57.58125 131.81563 59.315624Q131.81563 60.721874 131.39375 61.534374Q130.97188 62.33125 130.15938 62.784374Q129.3625 63.221874 128.425 63.221874Q126.89375 63.221874 125.95625 62.2375Q125.01875 61.253124 125.01875 59.425ZM126.28438 59.425Q126.28438 60.815624 126.89375 61.51875Q127.50313 62.20625 128.425 62.20625Q129.33125 62.20625 129.94063 61.503124Q130.55 60.8 130.55 59.378124Q130.55 58.034374 129.94063 57.346874Q129.33125 56.64375 128.425 56.64375Q127.50313 56.64375 126.89375 57.33125Q126.28438 58.01875 126.28438 59.425ZM132.9875 60.034374L132.9875 58.8L136.76875 58.8L136.76875 60.034374L132.9875 60.034374ZM143.20625 60.39375L144.425 60.55Q144.22188 61.8 143.39375 62.51875Q142.58125 63.221874 141.39375 63.221874Q139.90938 63.221874 139.00313 62.253124Q138.09688 61.26875 138.09688 59.440624Q138.09688 58.26875 138.4875 57.39375Q138.87813 56.503124 139.675 56.065624Q140.47188 55.628124 141.40938 55.628124Q142.58125 55.628124 143.33125 56.221874Q144.09688 56.815624 144.3 57.925L143.1125 58.1125Q142.94063 57.378124 142.50313 57.01875Q142.06563 56.64375 141.45625 56.64375Q140.51875 56.64375 139.94063 57.315624Q139.3625 57.971874 139.3625 59.409374Q139.3625 60.878124 139.925 61.55Q140.4875 62.20625 141.37813 62.20625Q142.1125 62.20625 142.59688 61.76875Q143.08125 61.315624 143.20625 60.39375ZM145.44063 63.05L145.44063 53.034374L146.675 53.034374L146.675 63.05L145.44063 63.05ZM148.4875 54.440624L148.4875 53.034374L149.70625 53.034374L149.70625 54.440624L148.4875 54.440624ZM148.4875 63.05L148.4875 55.784374L149.70625 55.784374L149.70625 63.05L148.4875 63.05Z" fill-rule="nonzero"/><path fill="#757575" d="M26.8 31.940624L26.8 30.253124L32.8625 30.2375L32.8625 35.55Q31.45625 36.675 29.971874 37.2375Q28.4875 37.8 26.925 37.8Q24.815624 37.8 23.096874 36.89375Q21.378124 35.9875 20.4875 34.284374Q19.6125 32.565624 19.6125 30.45625Q19.6125 28.3625 20.4875 26.565624Q21.3625 24.753124 23.003124 23.878124Q24.64375 22.9875 26.784374 22.9875Q28.33125 22.9875 29.58125 23.4875Q30.846874 23.9875 31.55 24.89375Q32.26875 25.784374 32.64375 27.2375L30.940624 27.70625Q30.6125 26.6125 30.128124 25.9875Q29.659374 25.3625 28.76875 24.9875Q27.878124 24.6125 26.8 24.6125Q25.4875 24.6125 24.534374 25.003124Q23.596874 25.39375 23.01875 26.05Q22.440624 26.690624 22.1125 27.45625Q21.565624 28.784374 21.565624 30.346874Q21.565624 32.253124 22.221874 33.55Q22.89375 34.83125 24.14375 35.45625Q25.409374 36.08125 26.815624 36.08125Q28.05 36.08125 29.221874 35.6125Q30.39375 35.14375 31.003124 34.596874L31.003124 31.940624L26.8 31.940624ZM35.878124 25.253124L35.878124 23.2375L37.64375 23.2375L37.64375 25.253124L35.878124 25.253124ZM35.878124 37.55L35.878124 27.175L37.64375 27.175L37.64375 37.55L35.878124 37.55ZM43.70625 35.971874L43.95625 37.534374Q43.221874 37.690624 42.628124 37.690624Q41.675 37.690624 41.14375 37.39375Q40.628124 37.08125 40.409374 36.596874Q40.190624 36.096874 40.190624 34.51875L40.190624 28.55L38.909374 28.55L38.909374 27.175L40.190624 27.175L40.190624 24.6125L41.940624 23.55L41.940624 27.175L43.70625 27.175L43.70625 28.55L41.940624 28.55L41.940624 34.6125Q41.940624 35.3625 42.034374 35.58125Q42.128124 35.784374 42.33125 35.925Q42.55 36.05 42.940624 36.05Q43.221874 36.05 43.70625 35.971874ZM46.159374 37.55L46.159374 23.2375L48.05 23.2375L48.05 29.1125L55.4875 29.1125L55.4875 23.2375L57.378124 23.2375L57.378124 37.55L55.4875 37.55L55.4875 30.8L48.05 30.8L48.05 37.55L46.159374 37.55ZM65.65938 37.55L65.65938 36.01875Q64.45625 37.784374 62.378124 37.784374Q61.45625 37.784374 60.659374 37.440624Q59.8625 37.08125 59.471874 36.55Q59.096874 36.01875 58.940624 35.2375Q58.83125 34.721874 58.83125 33.596874L58.83125 27.175L60.58125 27.175L60.58125 32.925Q60.58125 34.3 60.690624 34.784374Q60.8625 35.471874 61.39375 35.878124Q61.940624 36.26875 62.721874 36.26875Q63.51875 36.26875 64.20625 35.8625Q64.90938 35.45625 65.19063 34.76875Q65.4875 34.065624 65.4875 32.7375L65.4875 27.175L67.2375 27.175L67.2375 37.55L65.65938 37.55ZM70.4875 37.55L68.8625 37.55L68.8625 23.2375L70.6125 23.2375L70.6125 28.346874Q71.7375 26.940624 73.45625 26.940624Q74.40938 26.940624 75.26875 27.33125Q76.12813 27.721874 76.675 28.425Q77.22188 29.1125 77.53438 30.096874Q77.84688 31.08125 77.84688 32.20625Q77.84688 34.878124 76.53438 36.33125Q75.22188 37.784374 73.37813 37.784374Q71.53438 37.784374 70.4875 36.253124L70.4875 37.55ZM70.47188 32.284374Q70.47188 34.14375 70.97188 34.9875Q71.81563 36.33125 73.22188 36.33125Q74.37813 36.33125 75.20625 35.33125Q76.05 34.33125 76.05 32.346874Q76.05 30.315624 75.2375 29.3625Q74.44063 28.39375 73.3 28.39375Q72.14375 28.39375 71.3 29.39375Q70.47188 30.39375 70.47188 32.284374ZM85.45625 32.95625L87.2375 32.8Q87.3625 33.8625 87.81563 34.55Q88.28438 35.2375 89.25313 35.675Q90.2375 36.096874 91.47188 36.096874Q92.55 36.096874 93.37813 35.784374Q94.20625 35.45625 94.6125 34.89375Q95.01875 34.33125 95.01875 33.659374Q95.01875 32.9875 94.62813 32.4875Q94.2375 31.9875 93.34688 31.64375Q92.76875 31.409374 90.78438 30.940624Q88.81563 30.471874 88.03438 30.05Q87.00313 29.51875 86.50313 28.721874Q86.00313 27.925 86.00313 26.940624Q86.00313 25.846874 86.6125 24.909374Q87.22188 23.971874 88.40938 23.4875Q89.59688 22.9875 91.03438 22.9875Q92.62813 22.9875 93.84688 23.503124Q95.06563 24.01875 95.70625 25.01875Q96.3625 26.003124 96.40938 27.26875L94.59688 27.409374Q94.45625 26.05 93.6125 25.3625Q92.76875 24.659374 91.1125 24.659374Q89.39375 24.659374 88.59688 25.3Q87.81563 25.925 87.81563 26.8Q87.81563 27.58125 88.37813 28.08125Q88.925 28.58125 91.2375 29.096874Q93.55 29.6125 94.40938 30.003124Q95.65938 30.58125 96.25313 31.471874Q96.84688 32.346874 96.84688 33.503124Q96.84688 34.64375 96.19063 35.659374Q95.53438 36.675 94.3 37.2375Q93.08125 37.8 91.55 37.8Q89.6125 37.8 88.3 37.2375Q86.9875 36.659374 86.2375 35.51875Q85.4875 34.378124 85.45625 32.95625ZM102.70625 35.971874L102.95625 37.534374Q102.22188 37.690624 101.62813 37.690624Q100.675 37.690624 100.14375 37.39375Q99.62813 37.08125 99.40938 36.596874Q99.19063 36.096874 99.19063 34.51875L99.19063 28.55L97.90938 28.55L97.90938 27.175L99.19063 27.175L99.19063 24.6125L100.94063 23.55L100.94063 27.175L102.70625 27.175L102.70625 28.55L100.94063 28.55L100.94063 34.6125Q100.94063 35.3625 101.03438 35.58125Q101.12813 35.784374 101.33125 35.925Q101.55 36.05 101.94063 36.05Q102.22188 36.05 102.70625 35.971874ZM111.64375 36.26875Q110.65938 37.096874 109.75313 37.440624Q108.84688 37.784374 107.81563 37.784374Q106.1125 37.784374 105.19063 36.95625Q104.26875 36.1125 104.26875 34.815624Q104.26875 34.05 104.6125 33.425Q104.97188 32.8 105.53438 32.425Q106.09688 32.034374 106.8 31.83125Q107.31563 31.70625 108.3625 31.565624Q110.4875 31.315624 111.4875 30.971874Q111.50313 30.6125 111.50313 30.503124Q111.50313 29.440624 111.00313 28.9875Q110.33125 28.39375 109.00313 28.39375Q107.75313 28.39375 107.15938 28.83125Q106.58125 29.26875 106.3 30.378124L104.58125 30.14375Q104.81563 29.034374 105.34688 28.3625Q105.87813 27.675 106.89375 27.315624Q107.90938 26.940624 109.25313 26.940624Q110.58125 26.940624 111.40938 27.253124Q112.2375 27.565624 112.62813 28.05Q113.01875 28.51875 113.175 29.2375Q113.26875 29.690624 113.26875 30.8625L113.26875 33.20625Q113.26875 35.659374 113.37813 36.315624Q113.4875 36.95625 113.83125 37.55L111.9875 37.55Q111.72188 37.003124 111.64375 36.26875ZM111.4875 32.346874Q110.53438 32.7375 108.6125 33.003124Q107.53438 33.159374 107.08125 33.3625Q106.64375 33.55 106.39375 33.925Q106.14375 34.3 106.14375 34.76875Q106.14375 35.471874 106.675 35.940624Q107.20625 36.409374 108.2375 36.409374Q109.25313 36.409374 110.03438 35.971874Q110.83125 35.51875 111.20625 34.753124Q111.4875 34.14375 111.4875 32.9875L111.4875 32.346874ZM115.84688 37.55L115.84688 27.175L117.425 27.175L117.425 28.753124Q118.03438 27.64375 118.55 27.3Q119.06563 26.940624 119.675 26.940624Q120.56563 26.940624 121.4875 27.503124L120.87813 29.14375Q120.2375 28.753124 119.59688 28.753124Q119.01875 28.753124 118.55 29.1125Q118.09688 29.45625 117.89375 30.065624Q117.6125 31.003124 117.6125 32.1125L117.6125 37.55L115.84688 37.55ZM122.15938 34.45625L123.90938 34.175Q124.05 35.221874 124.72188 35.784374Q125.39375 36.33125 126.59688 36.33125Q127.8 36.33125 128.37813 35.846874Q128.97188 35.346874 128.97188 34.690624Q128.97188 34.096874 128.45625 33.753124Q128.09688 33.51875 126.65938 33.159374Q124.72188 32.659374 123.97188 32.315624Q123.2375 31.95625 122.84688 31.33125Q122.45625 30.690624 122.45625 29.925Q122.45625 29.2375 122.76875 28.64375Q123.09688 28.05 123.64375 27.659374Q124.05 27.3625 124.75313 27.159374Q125.47188 26.940624 126.28438 26.940624Q127.50313 26.940624 128.425 27.3Q129.34688 27.64375 129.78438 28.253124Q130.22188 28.846874 130.39375 29.846874L128.675 30.08125Q128.55 29.284374 127.9875 28.846874Q127.425 28.39375 126.40938 28.39375Q125.19063 28.39375 124.675 28.8Q124.15938 29.190624 124.15938 29.721874Q124.15938 30.065624 124.37813 30.346874Q124.58125 30.628124 125.05 30.815624Q125.31563 30.909374 126.59688 31.253124Q128.47188 31.753124 129.20625 32.08125Q129.94063 32.39375 130.3625 33.003124Q130.78438 33.596874 130.78438 34.503124Q130.78438 35.378124 130.26875 36.159374Q129.75313 36.940624 128.78438 37.3625Q127.81563 37.784374 126.59688 37.784374Q124.58125 37.784374 123.51875 36.940624Q122.45625 36.096874 122.15938 34.45625Z" fill-rule="nonzero"/></svg>