<svg version="1.1" viewBox="0.0 0.0 600.0 371.0" fill="none" stroke="none" stroke-linecap="square" stroke-miterlimit="10" width="600" height="371" xmlns:xlink="http://www.w3.org/1999/xlink" xmlns="http://www.w3.org/2000/svg"><path fill="#ffffff" d="M0 0L600.0 0L600.0 371.0L0 371.0L0 0Z" fill-rule="nonzero"/><path stroke="#333333" stroke-width="1.0" stroke-linecap="butt" d="M52.5 332.5L581.5 332.5" fill-rule="nonzero"/><path stroke="#cccccc" stroke-width="1.0" stroke-linecap="butt" d="M52.5 291.5L581.5 291.5" fill-rule="nonzero"/><path stroke="#cccccc" stroke-width="1.0" stroke-linecap="butt" d="M52.5 250.5L581.5 250.5" fill-rule="nonzero"/><path stroke="#cccccc" stroke-width="1.0" stroke-linecap="butt" d="M52.5 208.5L581.5 208.5" fill-rule="nonzero"/><path stroke="#cccccc" stroke-width="1.0" stroke-linecap="butt" d="M52.5 167.5L581.5 167.5" fill-rule="nonzero"/><path stroke="#cccccc" stroke-width="1.0" stroke-linecap="butt" d="M52.5 126.5L581.5 126.5" fill-rule="nonzero"/><path stroke="#cccccc" stroke-width="1.0" stroke-linecap="butt" d="M52.5 85.5L581.5 85.5" fill-rule="nonzero"/><path stroke="#eeeeee" stroke-width="1.0" stroke-linecap="butt" d="M331.19867 257.162L331.19867 273.162" fill-rule="nonzero"/><path stroke="#eeeeee" stroke-width="1.0" stroke-linecap="butt" d="M355.1589 225.04767L355.1589 241.04767" fill-rule="nonzero"/><path stroke="#eeeeee" stroke-width="1.0" stroke-linecap="butt" d="M396.42374 192.93333L396.42374 208.93333" fill-rule="nonzero"/><path stroke="#eeeeee" stroke-width="1.0" stroke-linecap="butt" d="M458.09915 145.997L458.09915 161.997" fill-rule="nonzero"/><clipPath id="id_0"><path d="M52.55 85.416664L581.45 85.416664L581.45 332.45L52.55 332.45L52.55 85.416664Z" clip-rule="nonzero"/></clipPath><path fill="#38761d" fill-opacity="0.3019608" clip-path="url(#id_0)" d="M52.55 332.45L223.8213 322.56866L273.96033 305.27634L298.80798 290.45435L331.19867 273.162L340.51654 258.34L355.1589 241.04767L376.01318 226.22566L396.42374 208.93333L415.9469 194.11133L435.91376 176.819L458.09915 161.997L486.9402 144.70467L517.556 129.88266L538.41034 112.59033L577.01294 97.76833L581.45 93.8158L581.45 332.45L577.01294 332.45L538.41034 332.45L517.556 332.45L486.9402 332.45L458.09915 332.45L435.91376 332.45L415.9469 332.45L396.42374 332.45L376.01318 332.45L355.1589 332.45L340.51654 332.45L331.19867 332.45L298.80798 332.45L273.96033 332.45L223.8213 332.45L52.55 332.45Z" fill-rule="nonzero"/><path stroke="#38761d" stroke-width="2.0" stroke-linecap="butt" clip-path="url(#id_0)" d="M52.55 332.45L223.8213 322.56866L273.96033 305.27634L298.80798 290.45435L331.19867 273.162L340.51654 258.34L355.1589 241.04767L376.01318 226.22566L396.42374 208.93333L415.9469 194.11133L435.91376 176.819L458.09915 161.997L486.9402 144.70467L517.556 129.88266L538.41034 112.59033L577.01294 97.76833L581.45 93.8158" fill-rule="nonzero"/><path fill="#000000" fill-opacity="0.0" clip-path="url(#id_0)" d="M55.55 332.45C55.55 334.10684 54.206856 335.45 52.55 335.45C50.893147 335.45 49.55 334.10684 49.55 332.45C49.55 330.79315 50.893147 329.45 52.55 329.45C54.206856 329.45 55.55 330.79315 55.55 332.45Z" fill-rule="nonzero"/><path fill="#000000" fill-opacity="0.0" clip-path="url(#id_0)" d="M226.8213 322.56866C226.8213 324.22552 225.47816 325.56866 223.8213 325.56866C222.16446 325.56866 220.8213 324.22552 220.8213 322.56866C220.8213 320.9118 222.16446 319.56866 223.8213 319.56866C225.47816 319.56866 226.8213 320.9118 226.8213 322.56866Z" fill-rule="nonzero"/><path fill="#000000" fill-opacity="0.0" clip-path="url(#id_0)" d="M276.96033 305.27634C276.96033 306.9332 275.6172 308.27634 273.96033 308.27634C272.30347 308.27634 270.96033 306.9332 270.96033 305.27634C270.96033 303.61948 272.30347 302.27634 273.96033 302.27634C275.6172 302.27634 276.96033 303.61948 276.96033 305.27634Z" fill-rule="nonzero"/><path fill="#000000" fill-opacity="0.0" clip-path="url(#id_0)" d="M301.80798 290.45435C301.80798 292.11118 300.4648 293.45435 298.80798 293.45435C297.15112 293.45435 295.80798 292.11118 295.80798 290.45435C295.80798 288.7975 297.15112 287.45435 298.80798 287.45435C300.4648 287.45435 301.80798 288.7975 301.80798 290.45435Z" fill-rule="nonzero"/><path fill="#000000" fill-opacity="0.0" clip-path="url(#id_0)" d="M334.19867 273.162C334.19867 274.81885 332.8555 276.162 331.19867 276.162C329.5418 276.162 328.19867 274.81885 328.19867 273.162C328.19867 271.50516 329.5418 270.162 331.19867 270.162C332.8555 270.162 334.19867 271.50516 334.19867 273.162Z" fill-rule="nonzero"/><path fill="#000000" fill-opacity="0.0" clip-path="url(#id_0)" d="M343.51654 258.34C343.51654 259.99686 342.17337 261.34 340.51654 261.34C338.85968 261.34 337.51654 259.99686 337.51654 258.34C337.51654 256.68314 338.85968 255.34 340.51654 255.34C342.17337 255.34 343.51654 256.68314 343.51654 258.34Z" fill-rule="nonzero"/><path fill="#000000" fill-opacity="0.0" clip-path="url(#id_0)" d="M358.1589 241.04767C358.1589 242.70451 356.81573 244.04767 355.1589 244.04767C353.50204 244.04767 352.1589 242.70451 352.1589 241.04767C352.1589 239.39081 353.50204 238.04767 355.1589 238.04767C356.81573 238.04767 358.1589 239.39081 358.1589 241.04767Z" fill-rule="nonzero"/><path fill="#000000" fill-opacity="0.0" clip-path="url(#id_0)" d="M379.01318 226.22566C379.01318 227.88252 377.67 229.22566 376.01318 229.22566C374.35632 229.22566 373.01318 227.88252 373.01318 226.22566C373.01318 224.56882 374.35632 223.22566 376.01318 223.22566C377.67 223.22566 379.01318 224.56882 379.01318 226.22566Z" fill-rule="nonzero"/><path fill="#000000" fill-opacity="0.0" clip-path="url(#id_0)" d="M399.42374 208.93333C399.42374 210.5902 398.0806 211.93333 396.42374 211.93333C394.76688 211.93333 393.42374 210.5902 393.42374 208.93333C393.42374 207.27647 394.76688 205.93333 396.42374 205.93333C398.0806 205.93333 399.42374 207.27647 399.42374 208.93333Z" fill-rule="nonzero"/><path fill="#000000" fill-opacity="0.0" clip-path="url(#id_0)" d="M418.9469 194.11133C418.9469 195.76819 417.60376 197.11133 415.9469 197.11133C414.29004 197.11133 412.9469 195.76819 412.9469 194.11133C412.9469 192.45448 414.29004 191.11133 415.9469 191.11133C417.60376 191.11133 418.9469 192.45448 418.9469 194.11133Z" fill-rule="nonzero"/><path fill="#000000" fill-opacity="0.0" clip-path="url(#id_0)" d="M438.91376 176.819C438.91376 178.47586 437.57062 179.819 435.91376 179.819C434.2569 179.819 432.91376 178.47586 432.91376 176.819C432.91376 175.16214 434.2569 173.819 435.91376 173.819C437.57062 173.819 438.91376 175.16214 438.91376 176.819Z" fill-rule="nonzero"/><path fill="#000000" fill-opacity="0.0" clip-path="url(#id_0)" d="M461.09915 161.997C461.09915 163.65385 459.756 164.997 458.09915 164.997C456.44232 164.997 455.09915 163.65385 455.09915 161.997C455.09915 160.34015 456.44232 158.997 458.09915 158.997C459.756 158.997 461.09915 160.34015 461.09915 161.997Z" fill-rule="nonzero"/><path fill="#000000" fill-opacity="0.0" clip-path="url(#id_0)" d="M489.9402 144.70467C489.9402 146.36153 488.59705 147.70467 486.9402 147.70467C485.28333 147.70467 483.9402 146.36153 483.9402 144.70467C483.9402 143.0478 485.28333 141.70467 486.9402 141.70467C488.59705 141.70467 489.9402 143.0478 489.9402 144.70467Z" fill-rule="nonzero"/><path fill="#000000" fill-opacity="0.0" clip-path="url(#id_0)" d="M520.556 129.88266C520.556 131.53952 519.2129 132.88266 517.556 132.88266C515.8992 132.88266 514.556 131.53952 514.556 129.88266C514.556 128.22581 515.8992 126.88267 517.556 126.88267C519.2129 126.88267 520.556 128.22581 520.556 129.88266Z" fill-rule="nonzero"/><path fill="#000000" fill-opacity="0.0" clip-path="url(#id_0)" d="M541.41034 112.59033C541.41034 114.247185 540.0672 115.59033 538.41034 115.59033C536.7535 115.59033 535.41034 114.247185 535.41034 112.59033C535.41034 110.93348 536.7535 109.59033 538.41034 109.59033C540.0672 109.59033 541.41034 110.93348 541.41034 112.59033Z" fill-rule="nonzero"/><path fill="#000000" fill-opacity="0.0" clip-path="url(#id_0)" d="M580.01294 97.76833C580.01294 99.425186 578.6698 100.76833 577.01294 100.76833C575.3561 100.76833 574.01294 99.425186 574.01294 97.76833C574.01294 96.11148 575.3561 94.76833 577.01294 94.76833C578.6698 94.76833 580.01294 96.11148 580.01294 97.76833Z" fill-rule="nonzero"/><path fill="#000000" fill-opacity="0.0" clip-path="url(#id_0)" d="M584.45 93.8158C584.45 95.47266 583.1069 96.8158 581.45 96.8158C579.79315 96.8158 578.45 95.47266 578.45 93.8158C578.45 92.15894 579.79315 90.8158 581.45 90.8158C583.1069 90.8158 584.45 92.15894 584.45 93.8158Z" fill-rule="nonzero"/><path stroke="#ffffff" stroke-width="3.0" stroke-linejoin="round" stroke-linecap="round" d="M322.60492 253.69325L324.18304 248.81825L325.29242 248.81825L323.01117 255.162L322.18304 255.162L319.88617 248.81825L320.99554 248.81825L322.60492 253.69325ZM329.9643 255.162L328.88617 255.162L328.88617 247.94325L326.69867 248.74013L326.69867 247.75575L329.80804 246.58388L329.9643 246.58388L329.9643 255.162ZM333.54242 254.5995Q333.54242 254.31825 333.69867 254.13075Q333.87054 253.94325 334.19867 253.94325Q334.54242 253.94325 334.7143 254.13075Q334.88617 254.31825 334.88617 254.5995Q334.88617 254.86513 334.7143 255.05263Q334.54242 255.2245 334.19867 255.2245Q333.87054 255.2245 333.69867 255.05263Q333.54242 254.86513 333.54242 254.5995ZM341.76117 251.52138Q341.76117 253.42763 341.10492 254.36513Q340.4643 255.287 339.07367 255.287Q337.7143 255.287 337.05804 254.38075Q336.4018 253.4745 336.37054 251.662L336.37054 250.2245Q336.37054 248.33388 337.01117 247.42763Q337.66742 246.50575 339.05804 246.50575Q340.43304 246.50575 341.0893 247.39638Q341.74554 248.27138 341.76117 250.11513L341.76117 251.52138ZM340.66742 250.037Q340.66742 248.662 340.2768 248.037Q339.9018 247.39638 339.05804 247.39638Q338.22992 247.39638 337.8393 248.037Q337.4643 248.662 337.4643 249.95888L337.4643 251.69325Q337.4643 253.06825 337.85492 253.74013Q338.26117 254.39638 339.07367 254.39638Q339.87054 254.39638 340.26117 253.77138Q340.6518 253.14638 340.66742 251.81825L340.66742 250.037Z" fill-rule="nonzero"/><path fill="#38761d" d="M322.60492 253.69325L324.18304 248.81825L325.29242 248.81825L323.01117 255.162L322.18304 255.162L319.88617 248.81825L320.99554 248.81825L322.60492 253.69325ZM329.9643 255.162L328.88617 255.162L328.88617 247.94325L326.69867 248.74013L326.69867 247.75575L329.80804 246.58388L329.9643 246.58388L329.9643 255.162ZM333.54242 254.5995Q333.54242 254.31825 333.69867 254.13075Q333.87054 253.94325 334.19867 253.94325Q334.54242 253.94325 334.7143 254.13075Q334.88617 254.31825 334.88617 254.5995Q334.88617 254.86513 334.7143 255.05263Q334.54242 255.2245 334.19867 255.2245Q333.87054 255.2245 333.69867 255.05263Q333.54242 254.86513 333.54242 254.5995ZM341.76117 251.52138Q341.76117 253.42763 341.10492 254.36513Q340.4643 255.287 339.07367 255.287Q337.7143 255.287 337.05804 254.38075Q336.4018 253.4745 336.37054 251.662L336.37054 250.2245Q336.37054 248.33388 337.01117 247.42763Q337.66742 246.50575 339.05804 246.50575Q340.43304 246.50575 341.0893 247.39638Q341.74554 248.27138 341.76117 250.11513L341.76117 251.52138ZM340.66742 250.037Q340.66742 248.662 340.2768 248.037Q339.9018 247.39638 339.05804 247.39638Q338.22992 247.39638 337.8393 248.037Q337.4643 248.662 337.4643 249.95888L337.4643 251.69325Q337.4643 253.06825 337.85492 253.74013Q338.26117 254.39638 339.07367 254.39638Q339.87054 254.39638 340.26117 253.77138Q340.6518 253.14638 340.66742 251.81825L340.66742 250.037Z" fill-rule="nonzero"/><path stroke="#ffffff" stroke-width="3.0" stroke-linejoin="round" stroke-linecap="round" d="M346.56516 221.57892L348.14328 216.70392L349.25266 216.70392L346.9714 223.04767L346.14328 223.04767L343.8464 216.70392L344.95578 216.70392L346.56516 221.57892ZM353.92453 223.04767L352.8464 223.04767L352.8464 215.82892L350.6589 216.6258L350.6589 215.64142L353.76828 214.46954L353.92453 214.46954L353.92453 223.04767ZM357.50266 222.48517Q357.50266 222.20392 357.6589 222.01642Q357.83078 221.82892 358.1589 221.82892Q358.50266 221.82892 358.67453 222.01642Q358.8464 222.20392 358.8464 222.48517Q358.8464 222.7508 358.67453 222.9383Q358.50266 223.11017 358.1589 223.11017Q357.83078 223.11017 357.6589 222.9383Q357.50266 222.7508 357.50266 222.48517ZM363.92453 223.04767L362.8464 223.04767L362.8464 215.82892L360.6589 216.6258L360.6589 215.64142L363.76828 214.46954L363.92453 214.46954L363.92453 223.04767Z" fill-rule="nonzero"/><path fill="#38761d" d="M346.56516 221.57892L348.14328 216.70392L349.25266 216.70392L346.9714 223.04767L346.14328 223.04767L343.8464 216.70392L344.95578 216.70392L346.56516 221.57892ZM353.92453 223.04767L352.8464 223.04767L352.8464 215.82892L350.6589 216.6258L350.6589 215.64142L353.76828 214.46954L353.92453 214.46954L353.92453 223.04767ZM357.50266 222.48517Q357.50266 222.20392 357.6589 222.01642Q357.83078 221.82892 358.1589 221.82892Q358.50266 221.82892 358.67453 222.01642Q358.8464 222.20392 358.8464 222.48517Q358.8464 222.7508 358.67453 222.9383Q358.50266 223.11017 358.1589 223.11017Q357.83078 223.11017 357.6589 222.9383Q357.50266 222.7508 357.50266 222.48517ZM363.92453 223.04767L362.8464 223.04767L362.8464 215.82892L360.6589 216.6258L360.6589 215.64142L363.76828 214.46954L363.92453 214.46954L363.92453 223.04767Z" fill-rule="nonzero"/><path stroke="#ffffff" stroke-width="3.0" stroke-linejoin="round" stroke-linecap="round" d="M387.83 189.46458L389.4081 184.58958L390.5175 184.58958L388.23624 190.93333L387.4081 190.93333L385.11124 184.58958L386.2206 184.58958L387.83 189.46458ZM395.18936 190.93333L394.11124 190.93333L394.11124 183.71458L391.92374 184.51146L391.92374 183.52708L395.0331 182.35521L395.18936 182.35521L395.18936 190.93333ZM398.7675 190.37083Q398.7675 190.08958 398.92374 189.90208Q399.0956 189.71458 399.42374 189.71458Q399.7675 189.71458 399.93936 189.90208Q400.11124 190.08958 400.11124 190.37083Q400.11124 190.63646 399.93936 190.82396Q399.7675 190.99583 399.42374 190.99583Q399.0956 190.99583 398.92374 190.82396Q398.7675 190.63646 398.7675 190.37083ZM407.2206 190.93333L401.62686 190.93333L401.62686 190.15208L404.58 186.87083Q405.23624 186.12083 405.48624 185.66771Q405.73624 185.19896 405.73624 184.69896Q405.73624 184.02708 405.33 183.60521Q404.93936 183.16771 404.25186 183.16771Q403.455 183.16771 403.00186 183.63646Q402.54874 184.08958 402.54874 184.91771L401.4706 184.91771Q401.4706 183.73021 402.2206 183.01146Q402.98624 182.27708 404.25186 182.27708Q405.455 182.27708 406.1425 182.90208Q406.83 183.52708 406.83 184.57396Q406.83 185.82396 405.2206 187.57396L402.93936 190.04271L407.2206 190.04271L407.2206 190.93333Z" fill-rule="nonzero"/><path fill="#38761d" d="M387.83 189.46458L389.4081 184.58958L390.5175 184.58958L388.23624 190.93333L387.4081 190.93333L385.11124 184.58958L386.2206 184.58958L387.83 189.46458ZM395.18936 190.93333L394.11124 190.93333L394.11124 183.71458L391.92374 184.51146L391.92374 183.52708L395.0331 182.35521L395.18936 182.35521L395.18936 190.93333ZM398.7675 190.37083Q398.7675 190.08958 398.92374 189.90208Q399.0956 189.71458 399.42374 189.71458Q399.7675 189.71458 399.93936 189.90208Q400.11124 190.08958 400.11124 190.37083Q400.11124 190.63646 399.93936 190.82396Q399.7675 190.99583 399.42374 190.99583Q399.0956 190.99583 398.92374 190.82396Q398.7675 190.63646 398.7675 190.37083ZM407.2206 190.93333L401.62686 190.93333L401.62686 190.15208L404.58 186.87083Q405.23624 186.12083 405.48624 185.66771Q405.73624 185.19896 405.73624 184.69896Q405.73624 184.02708 405.33 183.60521Q404.93936 183.16771 404.25186 183.16771Q403.455 183.16771 403.00186 183.63646Q402.54874 184.08958 402.54874 184.91771L401.4706 184.91771Q401.4706 183.73021 402.2206 183.01146Q402.98624 182.27708 404.25186 182.27708Q405.455 182.27708 406.1425 182.90208Q406.83 183.52708 406.83 184.57396Q406.83 185.82396 405.2206 187.57396L402.93936 190.04271L407.2206 190.04271L407.2206 190.93333Z" fill-rule="nonzero"/><path stroke="#ffffff" stroke-width="3.0" stroke-linejoin="round" stroke-linecap="round" d="M449.5054 142.52824L451.08353 137.65324L452.1929 137.65324L449.91165 143.997L449.08353 143.997L446.78665 137.65324L447.89603 137.65324L449.5054 142.52824ZM456.86478 143.997L455.78665 143.997L455.78665 136.77824L453.59915 137.57512L453.59915 136.59074L456.70853 135.41887L456.86478 135.41887L456.86478 143.997ZM460.4429 143.4345Q460.4429 143.15324 460.59915 142.96574Q460.77103 142.77824 461.09915 142.77824Q461.4429 142.77824 461.61478 142.96574Q461.78665 143.15324 461.78665 143.4345Q461.78665 143.70012 461.61478 143.88762Q461.4429 144.0595 461.09915 144.0595Q460.77103 144.0595 460.59915 143.88762Q460.4429 143.70012 460.4429 143.4345ZM464.8804 139.20012L465.6929 139.20012Q466.47415 139.1845 466.91165 138.79387Q467.34915 138.40324 467.34915 137.73137Q467.34915 136.23137 465.84915 136.23137Q465.14603 136.23137 464.72415 136.63762Q464.3179 137.04387 464.3179 137.70012L463.22415 137.70012Q463.22415 136.6845 463.95853 136.01262Q464.70853 135.34074 465.84915 135.34074Q467.05228 135.34074 467.73978 135.98137Q468.42728 136.622 468.42728 137.76262Q468.42728 138.32512 468.0679 138.84074Q467.70853 139.35637 467.08353 139.622Q467.78665 139.84074 468.16165 140.35637Q468.55228 140.872 468.55228 141.622Q468.55228 142.76262 467.80228 143.45012Q467.05228 144.122 465.84915 144.122Q464.66165 144.122 463.89603 143.46574Q463.14603 142.8095 463.14603 141.747L464.23978 141.747Q464.23978 142.41887 464.67728 142.82512Q465.11478 143.23137 465.86478 143.23137Q466.64603 143.23137 467.05228 142.82512Q467.47415 142.40324 467.47415 141.63762Q467.47415 140.90324 467.02103 140.51262Q466.5679 140.10637 465.6929 140.09074L464.8804 140.09074L464.8804 139.20012Z" fill-rule="nonzero"/><path fill="#38761d" d="M449.5054 142.52824L451.08353 137.65324L452.1929 137.65324L449.91165 143.997L449.08353 143.997L446.78665 137.65324L447.89603 137.65324L449.5054 142.52824ZM456.86478 143.997L455.78665 143.997L455.78665 136.77824L453.59915 137.57512L453.59915 136.59074L456.70853 135.41887L456.86478 135.41887L456.86478 143.997ZM460.4429 143.4345Q460.4429 143.15324 460.59915 142.96574Q460.77103 142.77824 461.09915 142.77824Q461.4429 142.77824 461.61478 142.96574Q461.78665 143.15324 461.78665 143.4345Q461.78665 143.70012 461.61478 143.88762Q461.4429 144.0595 461.09915 144.0595Q460.77103 144.0595 460.59915 143.88762Q460.4429 143.70012 460.4429 143.4345ZM464.8804 139.20012L465.6929 139.20012Q466.47415 139.1845 466.91165 138.79387Q467.34915 138.40324 467.34915 137.73137Q467.34915 136.23137 465.84915 136.23137Q465.14603 136.23137 464.72415 136.63762Q464.3179 137.04387 464.3179 137.70012L463.22415 137.70012Q463.22415 136.6845 463.95853 136.01262Q464.70853 135.34074 465.84915 135.34074Q467.05228 135.34074 467.73978 135.98137Q468.42728 136.622 468.42728 137.76262Q468.42728 138.32512 468.0679 138.84074Q467.70853 139.35637 467.08353 139.622Q467.78665 139.84074 468.16165 140.35637Q468.55228 140.872 468.55228 141.622Q468.55228 142.76262 467.80228 143.45012Q467.05228 144.122 465.84915 144.122Q464.66165 144.122 463.89603 143.46574Q463.14603 142.8095 463.14603 141.747L464.23978 141.747Q464.23978 142.41887 464.67728 142.82512Q465.11478 143.23137 465.86478 143.23137Q466.64603 143.23137 467.05228 142.82512Q467.47415 142.40324 467.47415 141.63762Q467.47415 140.90324 467.02103 140.51262Q466.5679 140.10637 465.6929 140.09074L464.8804 140.09074L464.8804 139.20012Z" fill-rule="nonzero"/><path fill="#000000" d="M40.05 332.21564Q40.05 330.6844 40.3625 329.7625Q40.675 328.825 41.284374 328.325Q41.909374 327.825 42.846874 327.825Q43.534374 327.825 44.05 328.10626Q44.58125 328.3875 44.925 328.91876Q45.26875 329.4344 45.45625 330.1844Q45.64375 330.9344 45.64375 332.21564Q45.64375 333.73126 45.33125 334.65314Q45.034374 335.575 44.409374 336.09064Q43.8 336.59064 42.846874 336.59064Q41.6125 336.59064 40.89375 335.7Q40.05 334.6375 40.05 332.21564ZM41.128124 332.21564Q41.128124 334.325 41.628124 335.02814Q42.128124 335.73126 42.846874 335.73126Q43.58125 335.73126 44.065624 335.02814Q44.565624 334.325 44.565624 332.21564Q44.565624 330.09064 44.065624 329.40314Q43.58125 328.7 42.83125 328.7Q42.1125 328.7 41.675 329.3094Q41.128124 330.09064 41.128124 332.21564Z" fill-rule="nonzero"/><path fill="#000000" d="M26.05 293.02777L27.159374 292.93402Q27.284374 293.74652 27.721874 294.15277Q28.175 294.55902 28.815624 294.55902Q29.565624 294.55902 30.096874 293.9809Q30.628124 293.40277 30.628124 292.46527Q30.628124 291.55902 30.1125 291.0434Q29.6125 290.51215 28.784374 290.51215Q28.284374 290.51215 27.8625 290.74652Q27.45625 290.9809 27.221874 291.34027L26.2375 291.21527L27.065624 286.80902L31.346874 286.80902L31.346874 287.80902L27.909374 287.80902L27.45625 290.12152Q28.221874 289.57465 29.065624 289.57465Q30.190624 289.57465 30.95625 290.3559Q31.7375 291.13715 31.7375 292.37152Q31.7375 293.52777 31.065624 294.38715Q30.2375 295.4184 28.815624 295.4184Q27.64375 295.4184 26.89375 294.76215Q26.159374 294.1059 26.05 293.02777ZM33.05 291.0434Q33.05 289.51215 33.3625 288.59027Q33.675 287.65277 34.284374 287.15277Q34.909374 286.65277 35.846874 286.65277Q36.534374 286.65277 37.05 286.93402Q37.58125 287.21527 37.925 287.74652Q38.26875 288.26215 38.45625 289.01215Q38.64375 289.76215 38.64375 291.0434Q38.64375 292.55902 38.33125 293.4809Q38.034374 294.40277 37.409374 294.9184Q36.8 295.4184 35.846874 295.4184Q34.6125 295.4184 33.89375 294.52777Q33.05 293.46527 33.05 291.0434ZM34.128124 291.0434Q34.128124 293.15277 34.628124 293.8559Q35.128124 294.55902 35.846874 294.55902Q36.58125 294.55902 37.065624 293.8559Q37.565624 293.15277 37.565624 291.0434Q37.565624 288.9184 37.065624 288.2309Q36.58125 287.52777 35.83125 287.52777Q35.1125 287.52777 34.675 288.13715Q34.128124 288.9184 34.128124 291.0434ZM40.05 291.0434Q40.05 289.51215 40.3625 288.59027Q40.675 287.65277 41.284374 287.15277Q41.909374 286.65277 42.846874 286.65277Q43.534374 286.65277 44.05 286.93402Q44.58125 287.21527 44.925 287.74652Q45.26875 288.26215 45.45625 289.01215Q45.64375 289.76215 45.64375 291.0434Q45.64375 292.55902 45.33125 293.4809Q45.034374 294.40277 44.409374 294.9184Q43.8 295.4184 42.846874 295.4184Q41.6125 295.4184 40.89375 294.52777Q40.05 293.46527 40.05 291.0434ZM41.128124 291.0434Q41.128124 293.15277 41.628124 293.8559Q42.128124 294.55902 42.846874 294.55902Q43.58125 294.55902 44.065624 293.8559Q44.565624 293.15277 44.565624 291.0434Q44.565624 288.9184 44.065624 288.2309Q43.58125 287.52777 42.83125 287.52777Q42.1125 287.52777 41.675 288.13715Q41.128124 288.9184 41.128124 291.0434Z" fill-rule="nonzero"/><path fill="#000000" d="M23.01875 254.10556L21.971874 254.10556L21.971874 247.38681Q21.58125 247.74619 20.95625 248.12119Q20.346874 248.48056 19.8625 248.65244L19.8625 247.63681Q20.7375 247.21494 21.39375 246.63681Q22.065624 246.04306 22.346874 245.48056L23.01875 245.48056L23.01875 254.10556ZM26.05 249.87119Q26.05 248.33994 26.3625 247.41806Q26.675 246.48056 27.284374 245.98056Q27.909374 245.48056 28.846874 245.48056Q29.534374 245.48056 30.05 245.76181Q30.58125 246.04306 30.925 246.57431Q31.26875 247.08994 31.45625 247.83994Q31.64375 248.58994 31.64375 249.87119Q31.64375 251.38681 31.33125 252.30869Q31.034374 253.23056 30.409374 253.74619Q29.8 254.24619 28.846874 254.24619Q27.6125 254.24619 26.89375 253.35556Q26.05 252.29306 26.05 249.87119ZM27.128124 249.87119Q27.128124 251.98056 27.628124 252.68369Q28.128124 253.38681 28.846874 253.38681Q29.58125 253.38681 30.065624 252.68369Q30.565624 251.98056 30.565624 249.87119Q30.565624 247.74619 30.065624 247.05869Q29.58125 246.35556 28.83125 246.35556Q28.1125 246.35556 27.675 246.96494Q27.128124 247.74619 27.128124 249.87119ZM33.05 249.87119Q33.05 248.33994 33.3625 247.41806Q33.675 246.48056 34.284374 245.98056Q34.909374 245.48056 35.846874 245.48056Q36.534374 245.48056 37.05 245.76181Q37.58125 246.04306 37.925 246.57431Q38.26875 247.08994 38.45625 247.83994Q38.64375 248.58994 38.64375 249.87119Q38.64375 251.38681 38.33125 252.30869Q38.034374 253.23056 37.409374 253.74619Q36.8 254.24619 35.846874 254.24619Q34.6125 254.24619 33.89375 253.35556Q33.05 252.29306 33.05 249.87119ZM34.128124 249.87119Q34.128124 251.98056 34.628124 252.68369Q35.128124 253.38681 35.846874 253.38681Q36.58125 253.38681 37.065624 252.68369Q37.565624 251.98056 37.565624 249.87119Q37.565624 247.74619 37.065624 247.05869Q36.58125 246.35556 35.83125 246.35556Q35.1125 246.35556 34.675 246.96494Q34.128124 247.74619 34.128124 249.87119ZM40.05 249.87119Q40.05 248.33994 40.3625 247.41806Q40.675 246.48056 41.284374 245.98056Q41.909374 245.48056 42.846874 245.48056Q43.534374 245.48056 44.05 245.76181Q44.58125 246.04306 44.925 246.57431Q45.26875 247.08994 45.45625 247.83994Q45.64375 248.58994 45.64375 249.87119Q45.64375 251.38681 45.33125 252.30869Q45.034374 253.23056 44.409374 253.74619Q43.8 254.24619 42.846874 254.24619Q41.6125 254.24619 40.89375 253.35556Q40.05 252.29306 40.05 249.87119ZM41.128124 249.87119Q41.128124 251.98056 41.628124 252.68369Q42.128124 253.38681 42.846874 253.38681Q43.58125 253.38681 44.065624 252.68369Q44.565624 251.98056 44.565624 249.87119Q44.565624 247.74619 44.065624 247.05869Q43.58125 246.35556 42.83125 246.35556Q42.1125 246.35556 41.675 246.96494Q41.128124 247.74619 41.128124 249.87119Z" fill-rule="nonzero"/><path fill="#000000" d="M23.01875 212.93333L21.971874 212.93333L21.971874 206.21458Q21.58125 206.57396 20.95625 206.94896Q20.346874 207.30833 19.8625 207.48021L19.8625 206.46458Q20.7375 206.04271 21.39375 205.46458Q22.065624 204.87083 22.346874 204.30833L23.01875 204.30833L23.01875 212.93333ZM26.05 210.68333L27.159374 210.58958Q27.284374 211.40208 27.721874 211.80833Q28.175 212.21458 28.815624 212.21458Q29.565624 212.21458 30.096874 211.63646Q30.628124 211.05833 30.628124 210.12083Q30.628124 209.21458 30.1125 208.69896Q29.6125 208.16771 28.784374 208.16771Q28.284374 208.16771 27.8625 208.40208Q27.45625 208.63646 27.221874 208.99583L26.2375 208.87083L27.065624 204.46458L31.346874 204.46458L31.346874 205.46458L27.909374 205.46458L27.45625 207.77708Q28.221874 207.23021 29.065624 207.23021Q30.190624 207.23021 30.95625 208.01146Q31.7375 208.79271 31.7375 210.02708Q31.7375 211.18333 31.065624 212.04271Q30.2375 213.07396 28.815624 213.07396Q27.64375 213.07396 26.89375 212.41771Q26.159374 211.76146 26.05 210.68333ZM33.05 208.69896Q33.05 207.16771 33.3625 206.24583Q33.675 205.30833 34.284374 204.80833Q34.909374 204.30833 35.846874 204.30833Q36.534374 204.30833 37.05 204.58958Q37.58125 204.87083 37.925 205.40208Q38.26875 205.91771 38.45625 206.66771Q38.64375 207.41771 38.64375 208.69896Q38.64375 210.21458 38.33125 211.13646Q38.034374 212.05833 37.409374 212.57396Q36.8 213.07396 35.846874 213.07396Q34.6125 213.07396 33.89375 212.18333Q33.05 211.12083 33.05 208.69896ZM34.128124 208.69896Q34.128124 210.80833 34.628124 211.51146Q35.128124 212.21458 35.846874 212.21458Q36.58125 212.21458 37.065624 211.51146Q37.565624 210.80833 37.565624 208.69896Q37.565624 206.57396 37.065624 205.88646Q36.58125 205.18333 35.83125 205.18333Q35.1125 205.18333 34.675 205.79271Q34.128124 206.57396 34.128124 208.69896ZM40.05 208.69896Q40.05 207.16771 40.3625 206.24583Q40.675 205.30833 41.284374 204.80833Q41.909374 204.30833 42.846874 204.30833Q43.534374 204.30833 44.05 204.58958Q44.58125 204.87083 44.925 205.40208Q45.26875 205.91771 45.45625 206.66771Q45.64375 207.41771 45.64375 208.69896Q45.64375 210.21458 45.33125 211.13646Q45.034374 212.05833 44.409374 212.57396Q43.8 213.07396 42.846874 213.07396Q41.6125 213.07396 40.89375 212.18333Q40.05 211.12083 40.05 208.69896ZM41.128124 208.69896Q41.128124 210.80833 41.628124 211.51146Q42.128124 212.21458 42.846874 212.21458Q43.58125 212.21458 44.065624 211.51146Q44.565624 210.80833 44.565624 208.69896Q44.565624 206.57396 44.065624 205.88646Q43.58125 205.18333 42.83125 205.18333Q42.1125 205.18333 41.675 205.79271Q41.128124 206.57396 41.128124 208.69896Z" fill-rule="nonzero"/><path fill="#000000" d="M24.596874 170.74548L24.596874 171.76111L18.909374 171.76111Q18.909374 171.38611 19.034374 171.02673Q19.253124 170.44861 19.721874 169.88611Q20.20625 169.32361 21.1125 168.58923Q22.51875 167.43298 23.003124 166.76111Q23.503124 166.08923 23.503124 165.49548Q23.503124 164.87048 23.05 164.44861Q22.596874 164.01111 21.878124 164.01111Q21.1125 164.01111 20.659374 164.46423Q20.20625 164.91736 20.190624 165.72986L19.1125 165.62048Q19.221874 164.40173 19.940624 163.77673Q20.675 163.13611 21.909374 163.13611Q23.14375 163.13611 23.8625 163.82361Q24.58125 164.51111 24.58125 165.52673Q24.58125 166.04236 24.3625 166.54236Q24.159374 167.02673 23.659374 167.58923Q23.175 168.13611 22.05 169.08923Q21.096874 169.88611 20.815624 170.18298Q20.55 170.46423 20.378124 170.74548L24.596874 170.74548ZM26.05 167.52673Q26.05 165.99548 26.3625 165.07361Q26.675 164.13611 27.284374 163.63611Q27.909374 163.13611 28.846874 163.13611Q29.534374 163.13611 30.05 163.41736Q30.58125 163.69861 30.925 164.22986Q31.26875 164.74548 31.45625 165.49548Q31.64375 166.24548 31.64375 167.52673Q31.64375 169.04236 31.33125 169.96423Q31.034374 170.88611 30.409374 171.40173Q29.8 171.90173 28.846874 171.90173Q27.6125 171.90173 26.89375 171.01111Q26.05 169.94861 26.05 167.52673ZM27.128124 167.52673Q27.128124 169.63611 27.628124 170.33923Q28.128124 171.04236 28.846874 171.04236Q29.58125 171.04236 30.065624 170.33923Q30.565624 169.63611 30.565624 167.52673Q30.565624 165.40173 30.065624 164.71423Q29.58125 164.01111 28.83125 164.01111Q28.1125 164.01111 27.675 164.62048Q27.128124 165.40173 27.128124 167.52673ZM33.05 167.52673Q33.05 165.99548 33.3625 165.07361Q33.675 164.13611 34.284374 163.63611Q34.909374 163.13611 35.846874 163.13611Q36.534374 163.13611 37.05 163.41736Q37.58125 163.69861 37.925 164.22986Q38.26875 164.74548 38.45625 165.49548Q38.64375 166.24548 38.64375 167.52673Q38.64375 169.04236 38.33125 169.96423Q38.034374 170.88611 37.409374 171.40173Q36.8 171.90173 35.846874 171.90173Q34.6125 171.90173 33.89375 171.01111Q33.05 169.94861 33.05 167.52673ZM34.128124 167.52673Q34.128124 169.63611 34.628124 170.33923Q35.128124 171.04236 35.846874 171.04236Q36.58125 171.04236 37.065624 170.33923Q37.565624 169.63611 37.565624 167.52673Q37.565624 165.40173 37.065624 164.71423Q36.58125 164.01111 35.83125 164.01111Q35.1125 164.01111 34.675 164.62048Q34.128124 165.40173 34.128124 167.52673ZM40.05 167.52673Q40.05 165.99548 40.3625 165.07361Q40.675 164.13611 41.284374 163.63611Q41.909374 163.13611 42.846874 163.13611Q43.534374 163.13611 44.05 163.41736Q44.58125 163.69861 44.925 164.22986Q45.26875 164.74548 45.45625 165.49548Q45.64375 166.24548 45.64375 167.52673Q45.64375 169.04236 45.33125 169.96423Q45.034374 170.88611 44.409374 171.40173Q43.8 171.90173 42.846874 171.90173Q41.6125 171.90173 40.89375 171.01111Q40.05 169.94861 40.05 167.52673ZM41.128124 167.52673Q41.128124 169.63611 41.628124 170.33923Q42.128124 171.04236 42.846874 171.04236Q43.58125 171.04236 44.065624 170.33923Q44.565624 169.63611 44.565624 167.52673Q44.565624 165.40173 44.065624 164.71423Q43.58125 164.01111 42.83125 164.01111Q42.1125 164.01111 41.675 164.62048Q41.128124 165.40173 41.128124 167.52673Z" fill-rule="nonzero"/><path fill="#000000" d="M24.596874 129.57326L24.596874 130.58888L18.909374 130.58888Q18.909374 130.21388 19.034374 129.8545Q19.253124 129.27638 19.721874 128.71388Q20.20625 128.15138 21.1125 127.41701Q22.51875 126.26076 23.003124 125.58888Q23.503124 124.91701 23.503124 124.32326Q23.503124 123.69826 23.05 123.27638Q22.596874 122.83888 21.878124 122.83888Q21.1125 122.83888 20.659374 123.29201Q20.20625 123.74513 20.190624 124.55763L19.1125 124.44826Q19.221874 123.22951 19.940624 122.60451Q20.675 121.96388 21.909374 121.96388Q23.14375 121.96388 23.8625 122.65138Q24.58125 123.33888 24.58125 124.35451Q24.58125 124.87013 24.3625 125.37013Q24.159374 125.85451 23.659374 126.41701Q23.175 126.96388 22.05 127.91701Q21.096874 128.71388 20.815624 129.01076Q20.55 129.292 20.378124 129.57326L24.596874 129.57326ZM26.05 128.33888L27.159374 128.24513Q27.284374 129.05763 27.721874 129.46388Q28.175 129.87013 28.815624 129.87013Q29.565624 129.87013 30.096874 129.292Q30.628124 128.71388 30.628124 127.77638Q30.628124 126.87013 30.1125 126.35451Q29.6125 125.82326 28.784374 125.82326Q28.284374 125.82326 27.8625 126.05763Q27.45625 126.29201 27.221874 126.65138L26.2375 126.52638L27.065624 122.12013L31.346874 122.12013L31.346874 123.12013L27.909374 123.12013L27.45625 125.43263Q28.221874 124.88576 29.065624 124.88576Q30.190624 124.88576 30.95625 125.66701Q31.7375 126.44826 31.7375 127.68263Q31.7375 128.83888 31.065624 129.69826Q30.2375 130.7295 28.815624 130.7295Q27.64375 130.7295 26.89375 130.07326Q26.159374 129.417 26.05 128.33888ZM33.05 126.35451Q33.05 124.82326 33.3625 123.90138Q33.675 122.96388 34.284374 122.46388Q34.909374 121.96388 35.846874 121.96388Q36.534374 121.96388 37.05 122.24513Q37.58125 122.52638 37.925 123.05763Q38.26875 123.57326 38.45625 124.32326Q38.64375 125.07326 38.64375 126.35451Q38.64375 127.87013 38.33125 128.792Q38.034374 129.71388 37.409374 130.2295Q36.8 130.7295 35.846874 130.7295Q34.6125 130.7295 33.89375 129.83888Q33.05 128.77638 33.05 126.35451ZM34.128124 126.35451Q34.128124 128.46388 34.628124 129.167Q35.128124 129.87013 35.846874 129.87013Q36.58125 129.87013 37.065624 129.167Q37.565624 128.46388 37.565624 126.35451Q37.565624 124.22951 37.065624 123.54201Q36.58125 122.83888 35.83125 122.83888Q35.1125 122.83888 34.675 123.44826Q34.128124 124.22951 34.128124 126.35451ZM40.05 126.35451Q40.05 124.82326 40.3625 123.90138Q40.675 122.96388 41.284374 122.46388Q41.909374 121.96388 42.846874 121.96388Q43.534374 121.96388 44.05 122.24513Q44.58125 122.52638 44.925 123.05763Q45.26875 123.57326 45.45625 124.32326Q45.64375 125.07326 45.64375 126.35451Q45.64375 127.87013 45.33125 128.792Q45.034374 129.71388 44.409374 130.2295Q43.8 130.7295 42.846874 130.7295Q41.6125 130.7295 40.89375 129.83888Q40.05 128.77638 40.05 126.35451ZM41.128124 126.35451Q41.128124 128.46388 41.628124 129.167Q42.128124 129.87013 42.846874 129.87013Q43.58125 129.87013 44.065624 129.167Q44.565624 128.46388 44.565624 126.35451Q44.565624 124.22951 44.065624 123.54201Q43.58125 122.83888 42.83125 122.83888Q42.1125 122.83888 41.675 123.44826Q41.128124 124.22951 41.128124 126.35451Z" fill-rule="nonzero"/><path fill="#000000" d="M19.05 87.15104L20.1125 87.010414Q20.284374 87.90104 20.721874 88.30729Q21.159374 88.697914 21.784374 88.697914Q22.534374 88.697914 23.05 88.18229Q23.565624 87.666664 23.565624 86.90104Q23.565624 86.18229 23.08125 85.71354Q22.6125 85.229164 21.878124 85.229164Q21.58125 85.229164 21.128124 85.354164L21.253124 84.416664Q21.3625 84.43229 21.425 84.43229Q22.096874 84.43229 22.628124 84.08854Q23.175 83.729164 23.175 82.99479Q23.175 82.416664 22.784374 82.041664Q22.39375 81.65104 21.76875 81.65104Q21.159374 81.65104 20.7375 82.041664Q20.33125 82.43229 20.221874 83.197914L19.159374 83.010414Q19.346874 81.96354 20.034374 81.385414Q20.721874 80.791664 21.7375 80.791664Q22.440624 80.791664 23.034374 81.104164Q23.628124 81.40104 23.940624 81.916664Q24.253124 82.43229 24.253124 83.02604Q24.253124 83.572914 23.95625 84.041664Q23.659374 84.49479 23.08125 84.760414Q23.83125 84.93229 24.253124 85.49479Q24.675 86.041664 24.675 86.885414Q24.675 88.010414 23.846874 88.791664Q23.034374 89.572914 21.784374 89.572914Q20.659374 89.572914 19.909374 88.90104Q19.159374 88.21354 19.05 87.15104ZM26.05 85.18229Q26.05 83.65104 26.3625 82.729164Q26.675 81.791664 27.284374 81.291664Q27.909374 80.791664 28.846874 80.791664Q29.534374 80.791664 30.05 81.072914Q30.58125 81.354164 30.925 81.885414Q31.26875 82.40104 31.45625 83.15104Q31.64375 83.90104 31.64375 85.18229Q31.64375 86.697914 31.33125 87.61979Q31.034374 88.541664 30.409374 89.05729Q29.8 89.55729 28.846874 89.55729Q27.6125 89.55729 26.89375 88.666664Q26.05 87.604164 26.05 85.18229ZM27.128124 85.18229Q27.128124 87.291664 27.628124 87.99479Q28.128124 88.697914 28.846874 88.697914Q29.58125 88.697914 30.065624 87.99479Q30.565624 87.291664 30.565624 85.18229Q30.565624 83.05729 30.065624 82.36979Q29.58125 81.666664 28.83125 81.666664Q28.1125 81.666664 27.675 82.27604Q27.128124 83.05729 27.128124 85.18229ZM33.05 85.18229Q33.05 83.65104 33.3625 82.729164Q33.675 81.791664 34.284374 81.291664Q34.909374 80.791664 35.846874 80.791664Q36.534374 80.791664 37.05 81.072914Q37.58125 81.354164 37.925 81.885414Q38.26875 82.40104 38.45625 83.15104Q38.64375 83.90104 38.64375 85.18229Q38.64375 86.697914 38.33125 87.61979Q38.034374 88.541664 37.409374 89.05729Q36.8 89.55729 35.846874 89.55729Q34.6125 89.55729 33.89375 88.666664Q33.05 87.604164 33.05 85.18229ZM34.128124 85.18229Q34.128124 87.291664 34.628124 87.99479Q35.128124 88.697914 35.846874 88.697914Q36.58125 88.697914 37.065624 87.99479Q37.565624 87.291664 37.565624 85.18229Q37.565624 83.05729 37.065624 82.36979Q36.58125 81.666664 35.83125 81.666664Q35.1125 81.666664 34.675 82.27604Q34.128124 83.05729 34.128124 85.18229ZM40.05 85.18229Q40.05 83.65104 40.3625 82.729164Q40.675 81.791664 41.284374 81.291664Q41.909374 80.791664 42.846874 80.791664Q43.534374 80.791664 44.05 81.072914Q44.58125 81.354164 44.925 81.885414Q45.26875 82.40104 45.45625 83.15104Q45.64375 83.90104 45.64375 85.18229Q45.64375 86.697914 45.33125 87.61979Q45.034374 88.541664 44.409374 89.05729Q43.8 89.55729 42.846874 89.55729Q41.6125 89.55729 40.89375 88.666664Q40.05 87.604164 40.05 85.18229ZM41.128124 85.18229Q41.128124 87.291664 41.628124 87.99479Q42.128124 88.697914 42.846874 88.697914Q43.58125 88.697914 44.065624 87.99479Q44.565624 87.291664 44.565624 85.18229Q44.565624 83.05729 44.065624 82.36979Q43.58125 81.666664 42.83125 81.666664Q42.1125 81.666664 41.675 82.27604Q41.128124 83.05729 41.128124 85.18229Z" fill-rule="nonzero"/><path fill="#000000" d="M65.40944 349.45L64.362564 349.45L64.362564 342.73126Q63.97194 343.09064 63.34694 343.46564Q62.737564 343.825 62.25319 343.9969L62.25319 342.98126Q63.12819 342.5594 63.78444 341.98126Q64.456314 341.3875 64.737564 340.825L65.40944 340.825L65.40944 349.45ZM67.94069 349.59064L70.425064 340.71564L71.268814 340.71564L68.78444 349.59064L67.94069 349.59064ZM75.40944 349.45L74.362564 349.45L74.362564 342.73126Q73.97194 343.09064 73.34694 343.46564Q72.737564 343.825 72.25319 343.9969L72.25319 342.98126Q73.12819 342.5594 73.78444 341.98126Q74.456314 341.3875 74.737564 340.825L75.40944 340.825L75.40944 349.45ZM77.94069 349.59064L80.425064 340.71564L81.268814 340.71564L78.78444 349.59064L77.94069 349.59064ZM86.987564 348.4344L86.987564 349.45L81.300064 349.45Q81.300064 349.075 81.425064 348.71564Q81.643814 348.1375 82.112564 347.575Q82.59694 347.0125 83.50319 346.27814Q84.90944 345.1219 85.393814 344.45Q85.893814 343.77814 85.893814 343.1844Q85.893814 342.5594 85.44069 342.1375Q84.987564 341.7 84.268814 341.7Q83.50319 341.7 83.050064 342.15314Q82.59694 342.60626 82.581314 343.41876L81.50319 343.3094Q81.612564 342.09064 82.331314 341.46564Q83.06569 340.825 84.300064 340.825Q85.53444 340.825 86.25319 341.5125Q86.97194 342.2 86.97194 343.21564Q86.97194 343.73126 86.75319 344.23126Q86.550064 344.71564 86.050064 345.27814Q85.56569 345.825 84.44069 346.77814Q83.487564 347.575 83.206314 347.8719Q82.94069 348.15314 82.768814 348.4344L86.987564 348.4344ZM88.44069 345.21564Q88.44069 343.6844 88.75319 342.7625Q89.06569 341.825 89.675064 341.325Q90.300064 340.825 91.237564 340.825Q91.925064 340.825 92.44069 341.10626Q92.97194 341.3875 93.31569 341.91876Q93.65944 342.4344 93.84694 343.1844Q94.03444 343.9344 94.03444 345.21564Q94.03444 346.73126 93.72194 347.65314Q93.425064 348.575 92.800064 349.09064Q92.19069 349.59064 91.237564 349.59064Q90.00319 349.59064 89.28444 348.7Q88.44069 347.6375 88.44069 345.21564ZM89.518814 345.21564Q89.518814 347.325 90.018814 348.02814Q90.518814 348.73126 91.237564 348.73126Q91.97194 348.73126 92.456314 348.02814Q92.956314 347.325 92.956314 345.21564Q92.956314 343.09064 92.456314 342.40314Q91.97194 341.7 91.22194 341.7Q90.50319 341.7 90.06569 342.3094Q89.518814 343.09064 89.518814 345.21564ZM100.987564 348.4344L100.987564 349.45L95.300064 349.45Q95.300064 349.075 95.425064 348.71564Q95.643814 348.1375 96.112564 347.575Q96.59694 347.0125 97.50319 346.27814Q98.90944 345.1219 99.393814 344.45Q99.893814 343.77814 99.893814 343.1844Q99.893814 342.5594 99.44069 342.1375Q98.987564 341.7 98.268814 341.7Q97.50319 341.7 97.050064 342.15314Q96.59694 342.60626 96.581314 343.41876L95.50319 343.3094Q95.612564 342.09064 96.331314 341.46564Q97.06569 340.825 98.300064 340.825Q99.53444 340.825 100.25319 341.5125Q100.97194 342.2 100.97194 343.21564Q100.97194 343.73126 100.75319 344.23126Q100.550064 344.71564 100.050064 345.27814Q99.56569 345.825 98.44069 346.77814Q97.487564 347.575 97.206314 347.8719Q96.94069 348.15314 96.768814 348.4344L100.987564 348.4344ZM106.40944 349.45L105.362564 349.45L105.362564 342.73126Q104.97194 343.09064 104.34694 343.46564Q103.737564 343.825 103.25319 343.9969L103.25319 342.98126Q104.12819 342.5594 104.78444 341.98126Q105.456314 341.3875 105.737564 340.825L106.40944 340.825L106.40944 349.45Z" fill-rule="nonzero"/><path fill="#000000" d="M227.36288 349.45L226.31601 349.45L226.31601 342.73126Q225.92538 343.09064 225.30038 343.46564Q224.69101 343.825 224.20663 343.9969L224.20663 342.98126Q225.08163 342.5594 225.73788 341.98126Q226.40976 341.3875 226.69101 340.825L227.36288 340.825L227.36288 349.45ZM229.89413 349.59064L232.37851 340.71564L233.22226 340.71564L230.73788 349.59064L229.89413 349.59064ZM237.36288 349.45L236.31601 349.45L236.31601 342.73126Q235.92538 343.09064 235.30038 343.46564Q234.69101 343.825 234.20663 343.9969L234.20663 342.98126Q235.08163 342.5594 235.73788 341.98126Q236.40976 341.3875 236.69101 340.825L237.36288 340.825L237.36288 349.45ZM239.89413 349.59064L242.37851 340.71564L243.22226 340.71564L240.73788 349.59064L239.89413 349.59064ZM248.94101 348.4344L248.94101 349.45L243.25351 349.45Q243.25351 349.075 243.37851 348.71564Q243.59726 348.1375 244.06601 347.575Q244.55038 347.0125 245.45663 346.27814Q246.86288 345.1219 247.34726 344.45Q247.84726 343.77814 247.84726 343.1844Q247.84726 342.5594 247.39413 342.1375Q246.94101 341.7 246.22226 341.7Q245.45663 341.7 245.00351 342.15314Q244.55038 342.60626 244.53476 343.41876L243.45663 343.3094Q243.56601 342.09064 244.28476 341.46564Q245.01913 340.825 246.25351 340.825Q247.48788 340.825 248.20663 341.5125Q248.92538 342.2 248.92538 343.21564Q248.92538 343.73126 248.70663 344.23126Q248.50351 344.71564 248.00351 345.27814Q247.51913 345.825 246.39413 346.77814Q245.44101 347.575 245.15976 347.8719Q244.89413 348.15314 244.72226 348.4344L248.94101 348.4344ZM250.39413 345.21564Q250.39413 343.6844 250.70663 342.7625Q251.01913 341.825 251.62851 341.325Q252.25351 340.825 253.19101 340.825Q253.87851 340.825 254.39413 341.10626Q254.92538 341.3875 255.26913 341.91876Q255.61288 342.4344 255.80038 343.1844Q255.98788 343.9344 255.98788 345.21564Q255.98788 346.73126 255.67538 347.65314Q255.37851 348.575 254.75351 349.09064Q254.14413 349.59064 253.19101 349.59064Q251.95663 349.59064 251.23788 348.7Q250.39413 347.6375 250.39413 345.21564ZM251.47226 345.21564Q251.47226 347.325 251.97226 348.02814Q252.47226 348.73126 253.19101 348.73126Q253.92538 348.73126 254.40976 348.02814Q254.90976 347.325 254.90976 345.21564Q254.90976 343.09064 254.40976 342.40314Q253.92538 341.7 253.17538 341.7Q252.45663 341.7 252.01913 342.3094Q251.47226 343.09064 251.47226 345.21564ZM262.941 348.4344L262.941 349.45L257.2535 349.45Q257.2535 349.075 257.3785 348.71564Q257.59726 348.1375 258.066 347.575Q258.55038 347.0125 259.45663 346.27814Q260.86288 345.1219 261.34726 344.45Q261.84726 343.77814 261.84726 343.1844Q261.84726 342.5594 261.39413 342.1375Q260.941 341.7 260.22226 341.7Q259.45663 341.7 259.0035 342.15314Q258.55038 342.60626 258.53476 343.41876L257.45663 343.3094Q257.566 342.09064 258.28476 341.46564Q259.01913 340.825 260.2535 340.825Q261.48788 340.825 262.20663 341.5125Q262.92538 342.2 262.92538 343.21564Q262.92538 343.73126 262.70663 344.23126Q262.5035 344.71564 262.0035 345.27814Q261.51913 345.825 260.39413 346.77814Q259.441 347.575 259.15976 347.8719Q258.89413 348.15314 258.72226 348.4344L262.941 348.4344ZM269.941 348.4344L269.941 349.45L264.2535 349.45Q264.2535 349.075 264.3785 348.71564Q264.59726 348.1375 265.066 347.575Q265.55038 347.0125 266.45663 346.27814Q267.86288 345.1219 268.34726 344.45Q268.84726 343.77814 268.84726 343.1844Q268.84726 342.5594 268.39413 342.1375Q267.941 341.7 267.22226 341.7Q266.45663 341.7 266.0035 342.15314Q265.55038 342.60626 265.53476 343.41876L264.45663 343.3094Q264.566 342.09064 265.28476 341.46564Q266.01913 340.825 267.2535 340.825Q268.48788 340.825 269.20663 341.5125Q269.92538 342.2 269.92538 343.21564Q269.92538 343.73126 269.70663 344.23126Q269.5035 344.71564 269.0035 345.27814Q268.51913 345.825 267.39413 346.77814Q266.441 347.575 266.15976 347.8719Q265.89413 348.15314 265.72226 348.4344L269.941 348.4344Z" fill-rule="nonzero"/><path fill="#000000" d="M389.3163 349.45L388.26944 349.45L388.26944 342.73126Q387.8788 343.09064 387.2538 343.46564Q386.64444 343.825 386.16006 343.9969L386.16006 342.98126Q387.03506 342.5594 387.6913 341.98126Q388.3632 341.3875 388.64444 340.825L389.3163 340.825L389.3163 349.45ZM391.84756 349.59064L394.33194 340.71564L395.1757 340.71564L392.6913 349.59064L391.84756 349.59064ZM399.3163 349.45L398.26944 349.45L398.26944 342.73126Q397.8788 343.09064 397.2538 343.46564Q396.64444 343.825 396.16006 343.9969L396.16006 342.98126Q397.03506 342.5594 397.6913 341.98126Q398.3632 341.3875 398.64444 340.825L399.3163 340.825L399.3163 349.45ZM401.84756 349.59064L404.33194 340.71564L405.1757 340.71564L402.6913 349.59064L401.84756 349.59064ZM410.89444 348.4344L410.89444 349.45L405.20694 349.45Q405.20694 349.075 405.33194 348.71564Q405.5507 348.1375 406.01944 347.575Q406.5038 347.0125 407.41006 346.27814Q408.8163 345.1219 409.3007 344.45Q409.8007 343.77814 409.8007 343.1844Q409.8007 342.5594 409.34756 342.1375Q408.89444 341.7 408.1757 341.7Q407.41006 341.7 406.95694 342.15314Q406.5038 342.60626 406.4882 343.41876L405.41006 343.3094Q405.51944 342.09064 406.2382 341.46564Q406.97256 340.825 408.20694 340.825Q409.4413 340.825 410.16006 341.5125Q410.8788 342.2 410.8788 343.21564Q410.8788 343.73126 410.66006 344.23126Q410.45694 344.71564 409.95694 345.27814Q409.47256 345.825 408.34756 346.77814Q407.39444 347.575 407.1132 347.8719Q406.84756 348.15314 406.6757 348.4344L410.89444 348.4344ZM412.34756 345.21564Q412.34756 343.6844 412.66006 342.7625Q412.97256 341.825 413.58194 341.325Q414.20694 340.825 415.14444 340.825Q415.83194 340.825 416.34756 341.10626Q416.8788 341.3875 417.22256 341.91876Q417.5663 342.4344 417.7538 343.1844Q417.9413 343.9344 417.9413 345.21564Q417.9413 346.73126 417.6288 347.65314Q417.33194 348.575 416.70694 349.09064Q416.09756 349.59064 415.14444 349.59064Q413.91006 349.59064 413.1913 348.7Q412.34756 347.6375 412.34756 345.21564ZM413.4257 345.21564Q413.4257 347.325 413.9257 348.02814Q414.4257 348.73126 415.14444 348.73126Q415.8788 348.73126 416.3632 348.02814Q416.8632 347.325 416.8632 345.21564Q416.8632 343.09064 416.3632 342.40314Q415.8788 341.7 415.1288 341.7Q414.41006 341.7 413.97256 342.3094Q413.4257 343.09064 413.4257 345.21564ZM424.89444 348.4344L424.89444 349.45L419.20694 349.45Q419.20694 349.075 419.33194 348.71564Q419.5507 348.1375 420.01944 347.575Q420.5038 347.0125 421.41006 346.27814Q422.8163 345.1219 423.3007 344.45Q423.8007 343.77814 423.8007 343.1844Q423.8007 342.5594 423.34756 342.1375Q422.89444 341.7 422.1757 341.7Q421.41006 341.7 420.95694 342.15314Q420.5038 342.60626 420.4882 343.41876L419.41006 343.3094Q419.51944 342.09064 420.2382 341.46564Q420.97256 340.825 422.20694 340.825Q423.4413 340.825 424.16006 341.5125Q424.8788 342.2 424.8788 343.21564Q424.8788 343.73126 424.66006 344.23126Q424.45694 344.71564 423.95694 345.27814Q423.47256 345.825 422.34756 346.77814Q421.39444 347.575 421.1132 347.8719Q420.84756 348.15314 420.6757 348.4344L424.89444 348.4344ZM426.34756 347.1844L427.41006 347.04376Q427.58194 347.9344 428.01944 348.34064Q428.45694 348.73126 429.08194 348.73126Q429.83194 348.73126 430.34756 348.21564Q430.8632 347.7 430.8632 346.9344Q430.8632 346.21564 430.3788 345.7469Q429.91006 345.2625 429.1757 345.2625Q428.8788 345.2625 428.4257 345.3875L428.5507 344.45Q428.66006 344.46564 428.72256 344.46564Q429.39444 344.46564 429.9257 344.1219Q430.47256 343.7625 430.47256 343.02814Q430.47256 342.45 430.08194 342.075Q429.6913 341.6844 429.0663 341.6844Q428.45694 341.6844 428.03506 342.075Q427.6288 342.46564 427.51944 343.23126L426.45694 343.04376Q426.64444 341.9969 427.33194 341.41876Q428.01944 340.825 429.03506 340.825Q429.7382 340.825 430.33194 341.1375Q430.9257 341.4344 431.2382 341.95Q431.5507 342.46564 431.5507 343.0594Q431.5507 343.60626 431.2538 344.075Q430.95694 344.52814 430.3788 344.79376Q431.1288 344.96564 431.5507 345.52814Q431.97256 346.075 431.97256 346.91876Q431.97256 348.04376 431.14444 348.825Q430.33194 349.60626 429.08194 349.60626Q427.95694 349.60626 427.20694 348.9344Q426.45694 348.2469 426.34756 347.1844Z" fill-rule="nonzero"/><path fill="#000000" d="M551.2698 349.45L550.2229 349.45L550.2229 342.73126Q549.8323 343.09064 549.2073 343.46564Q548.5979 343.825 548.1135 343.9969L548.1135 342.98126Q548.9885 342.5594 549.6448 341.98126Q550.31665 341.3875 550.5979 340.825L551.2698 340.825L551.2698 349.45ZM553.801 349.59064L556.2854 340.71564L557.12915 340.71564L554.6448 349.59064L553.801 349.59064ZM561.2698 349.45L560.2229 349.45L560.2229 342.73126Q559.8323 343.09064 559.2073 343.46564Q558.5979 343.825 558.1135 343.9969L558.1135 342.98126Q558.9885 342.5594 559.6448 341.98126Q560.31665 341.3875 560.5979 340.825L561.2698 340.825L561.2698 349.45ZM563.801 349.59064L566.2854 340.71564L567.12915 340.71564L564.6448 349.59064L563.801 349.59064ZM572.8479 348.4344L572.8479 349.45L567.1604 349.45Q567.1604 349.075 567.2854 348.71564Q567.50415 348.1375 567.9729 347.575Q568.4573 347.0125 569.3635 346.27814Q570.7698 345.1219 571.25415 344.45Q571.75415 343.77814 571.75415 343.1844Q571.75415 342.5594 571.301 342.1375Q570.8479 341.7 570.12915 341.7Q569.3635 341.7 568.9104 342.15314Q568.4573 342.60626 568.44165 343.41876L567.3635 343.3094Q567.4729 342.09064 568.19165 341.46564Q568.926 340.825 570.1604 340.825Q571.3948 340.825 572.1135 341.5125Q572.8323 342.2 572.8323 343.21564Q572.8323 343.73126 572.6135 344.23126Q572.4104 344.71564 571.9104 345.27814Q571.426 345.825 570.301 346.77814Q569.3479 347.575 569.06665 347.8719Q568.801 348.15314 568.62915 348.4344L572.8479 348.4344ZM574.301 345.21564Q574.301 343.6844 574.6135 342.7625Q574.926 341.825 575.5354 341.325Q576.1604 340.825 577.0979 340.825Q577.7854 340.825 578.301 341.10626Q578.8323 341.3875 579.176 341.91876Q579.5198 342.4344 579.7073 343.1844Q579.8948 343.9344 579.8948 345.21564Q579.8948 346.73126 579.5823 347.65314Q579.2854 348.575 578.6604 349.09064Q578.051 349.59064 577.0979 349.59064Q575.8635 349.59064 575.1448 348.7Q574.301 347.6375 574.301 345.21564ZM575.37915 345.21564Q575.37915 347.325 575.87915 348.02814Q576.37915 348.73126 577.0979 348.73126Q577.8323 348.73126 578.31665 348.02814Q578.81665 347.325 578.81665 345.21564Q578.81665 343.09064 578.31665 342.40314Q577.8323 341.7 577.0823 341.7Q576.3635 341.7 575.926 342.3094Q575.37915 343.09064 575.37915 345.21564ZM586.8479 348.4344L586.8479 349.45L581.1604 349.45Q581.1604 349.075 581.2854 348.71564Q581.50415 348.1375 581.9729 347.575Q582.4573 347.0125 583.3635 346.27814Q584.7698 345.1219 585.25415 344.45Q585.75415 343.77814 585.75415 343.1844Q585.75415 342.5594 585.301 342.1375Q584.8479 341.7 584.12915 341.7Q583.3635 341.7 582.9104 342.15314Q582.4573 342.60626 582.44165 343.41876L581.3635 343.3094Q581.4729 342.09064 582.19165 341.46564Q582.926 340.825 584.1604 340.825Q585.3948 340.825 586.1135 341.5125Q586.8323 342.2 586.8323 343.21564Q586.8323 343.73126 586.6135 344.23126Q586.4104 344.71564 585.9104 345.27814Q585.426 345.825 584.301 346.77814Q583.3479 347.575 583.06665 347.8719Q582.801 348.15314 582.62915 348.4344L586.8479 348.4344ZM591.676 349.45L591.676 347.3875L587.9573 347.3875L587.9573 346.41876L591.87915 340.85626L592.7385 340.85626L592.7385 346.41876L593.8948 346.41876L593.8948 347.3875L592.7385 347.3875L592.7385 349.45L591.676 349.45ZM591.676 346.41876L591.676 342.5594L588.9885 346.41876L591.676 346.41876Z" fill-rule="nonzero"/><path fill="#999999" d="M24.096874 65.83125L24.096874 62.284374Q23.815624 62.675 23.3 62.95625Q22.784374 63.221874 22.20625 63.221874Q20.909374 63.221874 19.971874 62.190624Q19.05 61.14375 19.05 59.346874Q19.05 58.253124 19.425 57.39375Q19.8 56.51875 20.51875 56.08125Q21.2375 55.628124 22.1125 55.628124Q23.45625 55.628124 24.221874 56.753124L24.221874 55.784374L25.33125 55.784374L25.33125 65.83125L24.096874 65.83125ZM20.3 59.39375Q20.3 60.8 20.89375 61.503124Q21.4875 62.20625 22.3 62.20625Q23.096874 62.20625 23.659374 61.534374Q24.221874 60.8625 24.221874 59.503124Q24.221874 58.065624 23.628124 57.33125Q23.034374 56.596874 22.221874 56.596874Q21.425 56.596874 20.8625 57.284374Q20.3 57.95625 20.3 59.39375ZM32.2375 63.05L32.2375 61.9875Q31.378124 63.221874 29.925 63.221874Q29.284374 63.221874 28.721874 62.971874Q28.175 62.721874 27.89375 62.346874Q27.628124 61.971874 27.51875 61.440624Q27.440624 61.08125 27.440624 60.284374L27.440624 55.784374L28.675 55.784374L28.675 59.815624Q28.675 60.784374 28.753124 61.1125Q28.8625 61.596874 29.2375 61.878124Q29.6125 62.159374 30.175 62.159374Q30.721874 62.159374 31.20625 61.878124Q31.690624 61.58125 31.89375 61.096874Q32.096874 60.6125 32.096874 59.675L32.096874 55.784374L33.33125 55.784374L33.33125 63.05L32.2375 63.05ZM40.20625 62.159374Q39.534374 62.7375 38.89375 62.9875Q38.26875 63.221874 37.534374 63.221874Q36.346874 63.221874 35.690624 62.64375Q35.05 62.05 35.05 61.128124Q35.05 60.596874 35.284374 60.159374Q35.534374 59.721874 35.925 59.45625Q36.33125 59.190624 36.815624 59.05Q37.175 58.95625 37.909374 58.8625Q39.409374 58.690624 40.1125 58.440624Q40.1125 58.190624 40.1125 58.128124Q40.1125 57.3625 39.76875 57.065624Q39.3 56.64375 38.3625 56.64375Q37.503124 56.64375 37.08125 56.95625Q36.675 57.253124 36.471874 58.01875L35.26875 57.8625Q35.425 57.08125 35.8 56.6125Q36.190624 56.14375 36.89375 55.89375Q37.6125 55.628124 38.55 55.628124Q39.471874 55.628124 40.05 55.846874Q40.628124 56.065624 40.89375 56.39375Q41.175 56.721874 41.284374 57.2375Q41.346874 57.55 41.346874 58.3625L41.346874 60.003124Q41.346874 61.721874 41.425 62.175Q41.503124 62.628124 41.7375 63.05L40.45625 63.05Q40.26875 62.659374 40.20625 62.159374ZM40.1125 59.409374Q39.440624 59.675 38.096874 59.878124Q37.346874 59.9875 37.01875 60.128124Q36.70625 60.253124 36.534374 60.51875Q36.3625 60.784374 36.3625 61.096874Q36.3625 61.596874 36.7375 61.925Q37.1125 62.253124 37.83125 62.253124Q38.55 62.253124 39.096874 61.940624Q39.64375 61.628124 39.909374 61.08125Q40.1125 60.675 40.1125 59.8625L40.1125 59.409374ZM43.45625 63.05L43.45625 55.784374L44.565624 55.784374L44.565624 56.89375Q44.9875 56.1125 45.346874 55.878124Q45.70625 55.628124 46.14375 55.628124Q46.76875 55.628124 47.409374 56.01875L46.9875 57.159374Q46.534374 56.89375 46.08125 56.89375Q45.675 56.89375 45.346874 57.14375Q45.034374 57.378124 44.89375 57.815624Q44.690624 58.471874 44.690624 59.253124L44.690624 63.05L43.45625 63.05ZM51.159374 61.95625L51.33125 63.034374Q50.815624 63.14375 50.409374 63.14375Q49.7375 63.14375 49.3625 62.940624Q49.003124 62.721874 48.846874 62.378124Q48.70625 62.034374 48.70625 60.925L48.70625 56.753124L47.8 56.753124L47.8 55.784374L48.70625 55.784374L48.70625 53.9875L49.925 53.253124L49.925 55.784374L51.159374 55.784374L51.159374 56.753124L49.925 56.753124L49.925 60.9875Q49.925 61.51875 49.9875 61.675Q50.05 61.815624 50.190624 61.909374Q50.346874 62.003124 50.6125 62.003124Q50.83125 62.003124 51.159374 61.95625ZM52.01875 59.425Q52.01875 57.409374 53.14375 56.425Q54.065624 55.628124 55.425 55.628124Q56.909374 55.628124 57.8625 56.6125Q58.815624 57.58125 58.815624 59.315624Q58.815624 60.721874 58.39375 61.534374Q57.971874 62.33125 57.159374 62.784374Q56.3625 63.221874 55.425 63.221874Q53.89375 63.221874 52.95625 62.2375Q52.01875 61.253124 52.01875 59.425ZM53.284374 59.425Q53.284374 60.815624 53.89375 61.51875Q54.503124 62.20625 55.425 62.20625Q56.33125 62.20625 56.940624 61.503124Q57.55 60.8 57.55 59.378124Q57.55 58.034374 56.940624 57.346874Q56.33125 56.64375 55.425 56.64375Q54.503124 56.64375 53.89375 57.33125Q53.284374 58.01875 53.284374 59.425ZM59.9875 60.034374L59.9875 58.8L63.76875 58.8L63.76875 60.034374L59.9875 60.034374ZM70.19063 63.05L70.19063 62.128124Q69.4875 63.221874 68.15938 63.221874Q67.28438 63.221874 66.55 62.7375Q65.83125 62.253124 65.425 61.39375Q65.03438 60.534374 65.03438 59.425Q65.03438 58.346874 65.39375 57.45625Q65.75313 56.565624 66.47188 56.096874Q67.20625 55.628124 68.09688 55.628124Q68.75313 55.628124 69.26875 55.909374Q69.78438 56.175 70.09688 56.628124L70.09688 53.034374L71.33125 53.034374L71.33125 63.05L70.19063 63.05ZM66.3 59.425Q66.3 60.815624 66.87813 61.51875Q67.47188 62.20625 68.26875 62.20625Q69.08125 62.20625 69.64375 61.55Q70.20625 60.878124 70.20625 59.534374Q70.20625 58.034374 69.62813 57.346874Q69.05 56.64375 68.22188 56.64375Q67.39375 56.64375 66.84688 57.315624Q66.3 57.9875 66.3 59.425ZM78.44063 60.70625L79.72188 60.8625Q79.40938 61.9875 78.59688 62.6125Q77.78438 63.221874 76.51875 63.221874Q74.925 63.221874 73.9875 62.2375Q73.06563 61.253124 73.06563 59.4875Q73.06563 57.64375 74.00313 56.64375Q74.95625 55.628124 76.45625 55.628124Q77.90938 55.628124 78.83125 56.628124Q79.75313 57.6125 79.75313 59.409374Q79.75313 59.51875 79.75313 59.7375L74.33125 59.7375Q74.40938 60.925 75.00313 61.565624Q75.6125 62.20625 76.53438 62.20625Q77.20625 62.20625 77.675 61.846874Q78.15938 61.4875 78.44063 60.70625ZM74.40938 58.721874L78.45625 58.721874Q78.37813 57.8 77.9875 57.346874Q77.40938 56.64375 76.47188 56.64375Q75.6125 56.64375 75.03438 57.20625Q74.47188 57.76875 74.40938 58.721874ZM83.4875 63.05L80.72188 55.784374L82.03438 55.784374L83.58125 60.14375Q83.83125 60.846874 84.05 61.596874Q84.22188 61.01875 84.50313 60.221874L86.12813 55.784374L87.39375 55.784374L84.64375 63.05L83.4875 63.05ZM87.55 63.221874L90.45625 52.8625L91.44063 52.8625L88.53438 63.221874L87.55 63.221874ZM97.09688 65.83125L97.09688 62.284374Q96.81563 62.675 96.3 62.95625Q95.78438 63.221874 95.20625 63.221874Q93.90938 63.221874 92.97188 62.190624Q92.05 61.14375 92.05 59.346874Q92.05 58.253124 92.425 57.39375Q92.8 56.51875 93.51875 56.08125Q94.2375 55.628124 95.1125 55.628124Q96.45625 55.628124 97.22188 56.753124L97.22188 55.784374L98.33125 55.784374L98.33125 65.83125L97.09688 65.83125ZM93.3 59.39375Q93.3 60.8 93.89375 61.503124Q94.4875 62.20625 95.3 62.20625Q96.09688 62.20625 96.65938 61.534374Q97.22188 60.8625 97.22188 59.503124Q97.22188 58.065624 96.62813 57.33125Q96.03438 56.596874 95.22188 56.596874Q94.425 56.596874 93.8625 57.284374Q93.3 57.95625 93.3 59.39375ZM105.2375 63.05L105.2375 61.9875Q104.37813 63.221874 102.925 63.221874Q102.28438 63.221874 101.72188 62.971874Q101.175 62.721874 100.89375 62.346874Q100.62813 61.971874 100.51875 61.440624Q100.44063 61.08125 100.44063 60.284374L100.44063 55.784374L101.675 55.784374L101.675 59.815624Q101.675 60.784374 101.75313 61.1125Q101.8625 61.596874 102.2375 61.878124Q102.6125 62.159374 103.175 62.159374Q103.72188 62.159374 104.20625 61.878124Q104.69063 61.58125 104.89375 61.096874Q105.09688 60.6125 105.09688 59.675L105.09688 55.784374L106.33125 55.784374L106.33125 63.05L105.2375 63.05ZM113.20625 62.159374Q112.53438 62.7375 111.89375 62.9875Q111.26875 63.221874 110.53438 63.221874Q109.34688 63.221874 108.69063 62.64375Q108.05 62.05 108.05 61.128124Q108.05 60.596874 108.28438 60.159374Q108.53438 59.721874 108.925 59.45625Q109.33125 59.190624 109.81563 59.05Q110.175 58.95625 110.90938 58.8625Q112.40938 58.690624 113.1125 58.440624Q113.1125 58.190624 113.1125 58.128124Q113.1125 57.3625 112.76875 57.065624Q112.3 56.64375 111.3625 56.64375Q110.50313 56.64375 110.08125 56.95625Q109.675 57.253124 109.47188 58.01875L108.26875 57.8625Q108.425 57.08125 108.8 56.6125Q109.19063 56.14375 109.89375 55.89375Q110.6125 55.628124 111.55 55.628124Q112.47188 55.628124 113.05 55.846874Q113.62813 56.065624 113.89375 56.39375Q114.175 56.721874 114.28438 57.2375Q114.34688 57.55 114.34688 58.3625L114.34688 60.003124Q114.34688 61.721874 114.425 62.175Q114.50313 62.628124 114.7375 63.05L113.45625 63.05Q113.26875 62.659374 113.20625 62.159374ZM113.1125 59.409374Q112.44063 59.675 111.09688 59.878124Q110.34688 59.9875 110.01875 60.128124Q109.70625 60.253124 109.53438 60.51875Q109.3625 60.784374 109.3625 61.096874Q109.3625 61.596874 109.7375 61.925Q110.1125 62.253124 110.83125 62.253124Q111.55 62.253124 112.09688 61.940624Q112.64375 61.628124 112.90938 61.08125Q113.1125 60.675 113.1125 59.8625L113.1125 59.409374ZM116.45625 63.05L116.45625 55.784374L117.56563 55.784374L117.56563 56.89375Q117.9875 56.1125 118.34688 55.878124Q118.70625 55.628124 119.14375 55.628124Q119.76875 55.628124 120.40938 56.01875L119.9875 57.159374Q119.53438 56.89375 119.08125 56.89375Q118.675 56.89375 118.34688 57.14375Q118.03438 57.378124 117.89375 57.815624Q117.69063 58.471874 117.69063 59.253124L117.69063 63.05L116.45625 63.05ZM124.15938 61.95625L124.33125 63.034374Q123.81563 63.14375 123.40938 63.14375Q122.7375 63.14375 122.3625 62.940624Q122.00313 62.721874 121.84688 62.378124Q121.70625 62.034374 121.70625 60.925L121.70625 56.753124L120.8 56.753124L120.8 55.784374L121.70625 55.784374L121.70625 53.9875L122.925 53.253124L122.925 55.784374L124.15938 55.784374L124.15938 56.753124L122.925 56.753124L122.925 60.9875Q122.925 61.51875 122.9875 61.675Q123.05 61.815624 123.19063 61.909374Q123.34688 62.003124 123.6125 62.003124Q123.83125 62.003124 124.15938 61.95625ZM125.01875 59.425Q125.01875 57.409374 126.14375 56.425Q127.06563 55.628124 128.425 55.628124Q129.90938 55.628124 130.8625 56.6125Q131.81563 57.58125 131.81563 59.315624Q131.81563 60.721874 131.39375 61.534374Q130.97188 62.33125 130.15938 62.784374Q129.3625 63.221874 128.425 63.221874Q126.89375 63.221874 125.95625 62.2375Q125.01875 61.253124 125.01875 59.425ZM126.28438 59.425Q126.28438 60.815624 126.89375 61.51875Q127.50313 62.20625 128.425 62.20625Q129.33125 62.20625 129.94063 61.503124Q130.55 60.8 130.55 59.378124Q130.55 58.034374 129.94063 57.346874Q129.33125 56.64375 128.425 56.64375Q127.50313 56.64375 126.89375 57.33125Q126.28438 58.01875 126.28438 59.425ZM132.9875 60.034374L132.9875 58.8L136.76875 58.8L136.76875 60.034374L132.9875 60.034374ZM143.20625 60.39375L144.425 60.55Q144.22188 61.8 143.39375 62.51875Q142.58125 63.221874 141.39375 63.221874Q139.90938 63.221874 139.00313 62.253124Q138.09688 61.26875 138.09688 59.440624Q138.09688 58.26875 138.4875 57.39375Q138.87813 56.503124 139.675 56.065624Q140.47188 55.628124 141.40938 55.628124Q142.58125 55.628124 143.33125 56.221874Q144.09688 56.815624 144.3 57.925L143.1125 58.1125Q142.94063 57.378124 142.50313 57.01875Q142.06563 56.64375 141.45625 56.64375Q140.51875 56.64375 139.94063 57.315624Q139.3625 57.971874 139.3625 59.409374Q139.3625 60.878124 139.925 61.55Q140.4875 62.20625 141.37813 62.20625Q142.1125 62.20625 142.59688 61.76875Q143.08125 61.315624 143.20625 60.39375ZM145.44063 63.05L145.44063 53.034374L146.675 53.034374L146.675 63.05L145.44063 63.05ZM148.4875 54.440624L148.4875 53.034374L149.70625 53.034374L149.70625 54.440624L148.4875 54.440624ZM148.4875 63.05L148.4875 55.784374L149.70625 55.784374L149.70625 63.05L148.4875 63.05Z" fill-rule="nonzero"/><path fill="#757575" d="M26.8 31.940624L26.8 30.253124L32.8625 30.2375L32.8625 35.55Q31.45625 36.675 29.971874 37.2375Q28.4875 37.8 26.925 37.8Q24.815624 37.8 23.096874 36.89375Q21.378124 35.9875 20.4875 34.284374Q19.6125 32.565624 19.6125 30.45625Q19.6125 28.3625 20.4875 26.565624Q21.3625 24.753124 23.003124 23.878124Q24.64375 22.9875 26.784374 22.9875Q28.33125 22.9875 29.58125 23.4875Q30.846874 23.9875 31.55 24.89375Q32.26875 25.784374 32.64375 27.2375L30.940624 27.70625Q30.6125 26.6125 30.128124 25.9875Q29.659374 25.3625 28.76875 24.9875Q27.878124 24.6125 26.8 24.6125Q25.4875 24.6125 24.534374 25.003124Q23.596874 25.39375 23.01875 26.05Q22.440624 26.690624 22.1125 27.45625Q21.565624 28.784374 21.565624 30.346874Q21.565624 32.253124 22.221874 33.55Q22.89375 34.83125 24.14375 35.45625Q25.409374 36.08125 26.815624 36.08125Q28.05 36.08125 29.221874 35.6125Q30.39375 35.14375 31.003124 34.596874L31.003124 31.940624L26.8 31.940624ZM35.878124 25.253124L35.878124 23.2375L37.64375 23.2375L37.64375 25.253124L35.878124 25.253124ZM35.878124 37.55L35.878124 27.175L37.64375 27.175L37.64375 37.55L35.878124 37.55ZM43.70625 35.971874L43.95625 37.534374Q43.221874 37.690624 42.628124 37.690624Q41.675 37.690624 41.14375 37.39375Q40.628124 37.08125 40.409374 36.596874Q40.190624 36.096874 40.190624 34.51875L40.190624 28.55L38.909374 28.55L38.909374 27.175L40.190624 27.175L40.190624 24.6125L41.940624 23.55L41.940624 27.175L43.70625 27.175L43.70625 28.55L41.940624 28.55L41.940624 34.6125Q41.940624 35.3625 42.034374 35.58125Q42.128124 35.784374 42.33125 35.925Q42.55 36.05 42.940624 36.05Q43.221874 36.05 43.70625 35.971874ZM46.159374 37.55L46.159374 23.2375L48.05 23.2375L48.05 29.1125L55.4875 29.1125L55.4875 23.2375L57.378124 23.2375L57.378124 37.55L55.4875 37.55L55.4875 30.8L48.05 30.8L48.05 37.55L46.159374 37.55ZM65.65938 37.55L65.65938 36.01875Q64.45625 37.784374 62.378124 37.784374Q61.45625 37.784374 60.659374 37.440624Q59.8625 37.08125 59.471874 36.55Q59.096874 36.01875 58.940624 35.2375Q58.83125 34.721874 58.83125 33.596874L58.83125 27.175L60.58125 27.175L60.58125 32.925Q60.58125 34.3 60.690624 34.784374Q60.8625 35.471874 61.39375 35.878124Q61.940624 36.26875 62.721874 36.26875Q63.51875 36.26875 64.20625 35.8625Q64.90938 35.45625 65.19063 34.76875Q65.4875 34.065624 65.4875 32.7375L65.4875 27.175L67.2375 27.175L67.2375 37.55L65.65938 37.55ZM70.4875 37.55L68.8625 37.55L68.8625 23.2375L70.6125 23.2375L70.6125 28.346874Q71.7375 26.940624 73.45625 26.940624Q74.40938 26.940624 75.26875 27.33125Q76.12813 27.721874 76.675 28.425Q77.22188 29.1125 77.53438 30.096874Q77.84688 31.08125 77.84688 32.20625Q77.84688 34.878124 76.53438 36.33125Q75.22188 37.784374 73.37813 37.784374Q71.53438 37.784374 70.4875 36.253124L70.4875 37.55ZM70.47188 32.284374Q70.47188 34.14375 70.97188 34.9875Q71.81563 36.33125 73.22188 36.33125Q74.37813 36.33125 75.20625 35.33125Q76.05 34.33125 76.05 32.346874Q76.05 30.315624 75.2375 29.3625Q74.44063 28.39375 73.3 28.39375Q72.14375 28.39375 71.3 29.39375Q70.47188 30.39375 70.47188 32.284374ZM85.45625 32.95625L87.2375 32.8Q87.3625 33.8625 87.81563 34.55Q88.28438 35.2375 89.25313 35.675Q90.2375 36.096874 91.47188 36.096874Q92.55 36.096874 93.37813 35.784374Q94.20625 35.45625 94.6125 34.89375Q95.01875 34.33125 95.01875 33.659374Q95.01875 32.9875 94.62813 32.4875Q94.2375 31.9875 93.34688 31.64375Q92.76875 31.409374 90.78438 30.940624Q88.81563 30.471874 88.03438 30.05Q87.00313 29.51875 86.50313 28.721874Q86.00313 27.925 86.00313 26.940624Q86.00313 25.846874 86.6125 24.909374Q87.22188 23.971874 88.40938 23.4875Q89.59688 22.9875 91.03438 22.9875Q92.62813 22.9875 93.84688 23.503124Q95.06563 24.01875 95.70625 25.01875Q96.3625 26.003124 96.40938 27.26875L94.59688 27.409374Q94.45625 26.05 93.6125 25.3625Q92.76875 24.659374 91.1125 24.659374Q89.39375 24.659374 88.59688 25.3Q87.81563 25.925 87.81563 26.8Q87.81563 27.58125 88.37813 28.08125Q88.925 28.58125 91.2375 29.096874Q93.55 29.6125 94.40938 30.003124Q95.65938 30.58125 96.25313 31.471874Q96.84688 32.346874 96.84688 33.503124Q96.84688 34.64375 96.19063 35.659374Q95.53438 36.675 94.3 37.2375Q93.08125 37.8 91.55 37.8Q89.6125 37.8 88.3 37.2375Q86.9875 36.659374 86.2375 35.51875Q85.4875 34.378124 85.45625 32.95625ZM102.70625 35.971874L102.95625 37.534374Q102.22188 37.690624 101.62813 37.690624Q100.675 37.690624 100.14375 37.39375Q99.62813 37.08125 99.40938 36.596874Q99.19063 36.096874 99.19063 34.51875L99.19063 28.55L97.90938 28.55L97.90938 27.175L99.19063 27.175L99.19063 24.6125L100.94063 23.55L100.94063 27.175L102.70625 27.175L102.70625 28.55L100.94063 28.55L100.94063 34.6125Q100.94063 35.3625 101.03438 35.58125Q101.12813 35.784374 101.33125 35.925Q101.55 36.05 101.94063 36.05Q102.22188 36.05 102.70625 35.971874ZM111.64375 36.26875Q110.65938 37.096874 109.75313 37.440624Q108.84688 37.784374 107.81563 37.784374Q106.1125 37.784374 105.19063 36.95625Q104.26875 36.1125 104.26875 34.815624Q104.26875 34.05 104.6125 33.425Q104.97188 32.8 105.53438 32.425Q106.09688 32.034374 106.8 31.83125Q107.31563 31.70625 108.3625 31.565624Q110.4875 31.315624 111.4875 30.971874Q111.50313 30.6125 111.50313 30.503124Q111.50313 29.440624 111.00313 28.9875Q110.33125 28.39375 109.00313 28.39375Q107.75313 28.39375 107.15938 28.83125Q106.58125 29.26875 106.3 30.378124L104.58125 30.14375Q104.81563 29.034374 105.34688 28.3625Q105.87813 27.675 106.89375 27.315624Q107.90938 26.940624 109.25313 26.940624Q110.58125 26.940624 111.40938 27.253124Q112.2375 27.565624 112.62813 28.05Q113.01875 28.51875 113.175 29.2375Q113.26875 29.690624 113.26875 30.8625L113.26875 33.20625Q113.26875 35.659374 113.37813 36.315624Q113.4875 36.95625 113.83125 37.55L111.9875 37.55Q111.72188 37.003124 111.64375 36.26875ZM111.4875 32.346874Q110.53438 32.7375 108.6125 33.003124Q107.53438 33.159374 107.08125 33.3625Q106.64375 33.55 106.39375 33.925Q106.14375 34.3 106.14375 34.76875Q106.14375 35.471874 106.675 35.940624Q107.20625 36.409374 108.2375 36.409374Q109.25313 36.409374 110.03438 35.971874Q110.83125 35.51875 111.20625 34.753124Q111.4875 34.14375 111.4875 32.9875L111.4875 32.346874ZM115.84688 37.55L115.84688 27.175L117.425 27.175L117.425 28.753124Q118.03438 27.64375 118.55 27.3Q119.06563 26.940624 119.675 26.940624Q120.56563 26.940624 121.4875 27.503124L120.87813 29.14375Q120.2375 28.753124 119.59688 28.753124Q119.01875 28.753124 118.55 29.1125Q118.09688 29.45625 117.89375 30.065624Q117.6125 31.003124 117.6125 32.1125L117.6125 37.55L115.84688 37.55ZM122.15938 34.45625L123.90938 34.175Q124.05 35.221874 124.72188 35.784374Q125.39375 36.33125 126.59688 36.33125Q127.8 36.33125 128.37813 35.846874Q128.97188 35.346874 128.97188 34.690624Q128.97188 34.096874 128.45625 33.753124Q128.09688 33.51875 126.65938 33.159374Q124.72188 32.659374 123.97188 32.315624Q123.2375 31.95625 122.84688 31.33125Q122.45625 30.690624 122.45625 29.925Q122.45625 29.2375 122.76875 28.64375Q123.09688 28.05 123.64375 27.659374Q124.05 27.3625 124.75313 27.159374Q125.47188 26.940624 126.28438 26.940624Q127.50313 26.940624 128.425 27.3Q129.34688 27.64375 129.78438 28.253124Q130.22188 28.846874 130.39375 29.846874L128.675 30.08125Q128.55 29.284374 127.9875 28.846874Q127.425 28.39375 126.40938 28.39375Q125.19063 28.39375 124.675 28.8Q124.15938 29.190624 124.15938 29.721874Q124.15938 30.065624 124.37813 30.346874Q124.58125 30.628124 125.05 30.815624Q125.31563 30.909374 126.59688 31.253124Q128.47188 31.753124 129.20625 32.08125Q129.94063 32.39375 130.3625 33.003124Q130.78438 33.596874 130.78438 34.503124Q130.78438 35.378124 130.26875 36.159374Q129.75313 36.940624 128.78438 37.3625Q127.81563 37.784374 126.59688 37.784374Q124.58125 37.784374 123.51875 36.940624Q122.45625 36.096874 122.15938 34.45625Z" fill-rule="nonzero"/></svg>